<svg width="206" height="60" viewBox="0 0 206 60" fill="none" xmlns="http://www.w3.org/2000/svg">
<path d="M2.53125 16.125L2.0625 15.8672C2.0625 16.0391 1.98438 16.125 1.82812 16.125L1.57031 15.6328H2.53125V16.125ZM9.98438 19.6406C10.0312 19.3125 10.0703 19.0625 10.1016 18.8906L9.86719 18.4219V18.3984C9.88281 18.1328 10.125 17.1797 10.5938 15.5391H10.8281C10.8281 15.7109 12.0234 16.8281 14.4141 18.8906V18.9844C14.6328 21.0781 14.875 22.4844 15.1406 23.2031H14.9062L15.375 24.6562V29.6953L15.8672 30.3984C15.5547 30.5547 15.3125 30.6328 15.1406 30.6328V32.0859C15.1406 32.2422 15.2188 32.3203 15.375 32.3203C15.375 32.4766 15.2969 32.5547 15.1406 32.5547L15.375 33.75V35.2031C15.375 35.3594 15.2969 35.4375 15.1406 35.4375L15.375 35.9062V36.3984L15.1406 37.5938H16.1016L17.2969 34.0078C16.9844 33.4766 16.8281 33.0703 16.8281 32.7891C17.1875 32.7891 17.4219 32.3906 17.5312 31.5938C17.375 31.5938 17.2969 31.5156 17.2969 31.3594C17.6094 31.3125 17.7656 31.1562 17.7656 30.8906C17.7656 30.7188 17.6875 30.6328 17.5312 30.6328C17.6875 30.4453 17.7656 29.9688 17.7656 29.2031C18.9844 23.3281 19.6719 19.8594 19.8281 18.7969L19.5938 18.3047L21.75 9.91406L22.2422 9.67969H23.1797C24.4609 12.5859 25.1016 14.1016 25.1016 14.2266H24.8672L25.1016 14.7188C24.9453 15 24.8672 15.3203 24.8672 15.6797H25.1016L25.5938 15.4453L25.8281 15.9141C25.6094 15.9141 25.3672 16.3906 25.1016 17.3438C24.4609 17.3438 24.1406 17.9844 24.1406 19.2656C22.7812 26.4375 22.1016 30.2266 22.1016 30.6328H22.3359C21.9766 31.6172 21.4922 32.4219 20.8828 33.0469C20.8828 33.2031 20.9688 33.2812 21.1406 33.2812C20.7656 35.8438 20.3672 37.125 19.9453 37.125C19.9453 37.9219 20.1016 38.3203 20.4141 38.3203C19.9297 39.1328 19.6875 39.9297 19.6875 40.7109C19.6875 40.8672 19.7734 40.9453 19.9453 40.9453C19.1328 42.6016 18.7266 43.6406 18.7266 44.0625V46.7109C18.7266 47.6641 18.0078 48.1406 16.5703 48.1406H16.3359C12.6641 48.1406 10.8281 47.7422 10.8281 46.9453V42.6328C10.8281 42.2734 10.75 41.9531 10.5938 41.6719C10.75 41.3906 10.8281 41.0703 10.8281 40.7109C10.6719 40.3984 10.5938 40.1562 10.5938 39.9844H10.8281L10.5938 39.5156C10.5938 39.3594 10.6719 39.2812 10.8281 39.2812L10.5938 38.7891V38.5781C10.1719 39.3281 9.96094 40.0703 9.96094 40.8047C9.96094 40.9609 10.0469 41.0391 10.2188 41.0391C9.40625 42.6953 9 43.7344 9 44.1562V46.8047C9 47.7578 8.28125 48.2344 6.84375 48.2344H6.60938C2.9375 48.2344 1.10156 47.8359 1.10156 47.0391V42.7266C1.10156 42.3672 1.02344 42.0469 0.867188 41.7656C1.02344 41.4844 1.10156 41.1641 1.10156 40.8047C0.945312 40.4922 0.867188 40.25 0.867188 40.0781H1.10156L0.867188 39.6094C0.867188 39.4531 0.945312 39.375 1.10156 39.375L0.867188 38.8828V35.7656C0.867188 35.6094 0.78125 35.5312 0.609375 35.5312L1.10156 34.3359C0.945312 34.0547 0.867188 33.7344 0.867188 33.375C0.867188 33.2188 0.945312 33.1406 1.10156 33.1406L0.867188 32.6484V30.0234C0.867188 29.8672 0.78125 29.7891 0.609375 29.7891L0.867188 29.2969L0.609375 28.8281H0.867188L0.609375 28.3359C0.609375 28.1797 0.695312 28.1016 0.867188 28.1016C0.742188 27.8984 0.578125 26.7812 0.375 24.75C0.53125 24.4375 0.609375 24.1953 0.609375 24.0234C0.296875 23.5078 0.140625 23.0312 0.140625 22.5938H0.375L0.140625 22.1016V21.6328H0.609375C0.484375 20.9922 0.328125 20.6719 0.140625 20.6719L0.375 20.1797C0.375 20.0234 0.296875 19.9453 0.140625 19.9453L0.375 19.4766V18.75C0.375 18.5938 0.296875 18.5156 0.140625 18.5156C0.140625 18.2812 0.382813 17.3203 0.867188 15.6328H1.10156C1.10156 15.8047 2.29688 16.9219 4.6875 18.9844C4.90625 21.125 5.14844 22.5625 5.41406 23.2969H5.17969L5.64844 24.75V29.7891L6.14062 30.4922C5.82812 30.6484 5.58594 30.7266 5.41406 30.7266V32.1797C5.41406 32.3359 5.49219 32.4141 5.64844 32.4141C5.64844 32.5703 5.57031 32.6484 5.41406 32.6484L5.64844 33.8438V35.2969C5.64844 35.4531 5.57031 35.5312 5.41406 35.5312L5.64844 36V36.4922L5.41406 37.6875H6.375L7.57031 34.1016C7.25781 33.5703 7.10156 33.1641 7.10156 32.8828C7.46094 32.8828 7.69531 32.4844 7.80469 31.6875C7.64844 31.6875 7.57031 31.6094 7.57031 31.4531C7.88281 31.4062 8.03906 31.25 8.03906 30.9844C8.03906 30.8125 7.96094 30.7266 7.80469 30.7266C7.96094 30.5391 8.03906 30.0625 8.03906 29.2969C9.00781 24.6406 9.64062 21.4922 9.9375 19.8516H9.86719L9.98438 19.6406ZM10.5938 36.8672C10.4688 37.1016 10.3438 37.2188 10.2188 37.2188C10.2188 37.9375 10.3438 38.3281 10.5938 38.3906V36.8672ZM1.82812 15.3984H0.609375V15.1641H1.82812V15.3984ZM30.3281 13.6875H30.5859C30.5859 14.2031 30.8438 14.4609 31.3594 14.4609C31.0781 17.5391 30.8516 19.7578 30.6797 21.1172C30.6797 21.2891 30.7656 21.375 30.9375 21.375C30.3906 25.125 30.0547 27.1719 29.9297 27.5156C30.0859 28.0312 30.25 28.2891 30.4219 28.2891L30.1641 28.8047V29.0625L30.4219 29.5781H30.1641C30.1641 29.75 30.25 29.8359 30.4219 29.8359C30.2969 31.5391 30.1328 32.3906 29.9297 32.3906C29.9297 32.5625 30.0078 32.6484 30.1641 32.6484C29.5547 35.9609 29.1328 37.6719 28.8984 37.7812L29.1562 38.2734V38.5312C29.1562 38.7031 29.0703 38.7891 28.8984 38.7891L29.1562 39.3047V39.8203C29.1562 40.2109 29.0703 40.5547 28.8984 40.8516L29.1562 41.3672C28.9844 42.3047 28.8984 42.9844 28.8984 43.4062H29.1562L28.8984 43.9219L29.1562 44.4375C28.8125 44.4844 28.6406 44.6562 28.6406 44.9531V46.9922L27.3516 47.25V47.5078H28.3828V48.7969C28.3828 49.1406 28.2109 49.3125 27.8672 49.3125C27.8672 49.1406 27.7812 49.0547 27.6094 49.0547C27.6094 49.2266 27.5234 49.3125 27.3516 49.3125C27.3516 48.9219 26.3281 47.6406 24.2812 45.4688C24.2812 45.2969 23.9375 44.7812 23.25 43.9219L24.5391 34.6875L24.2812 34.1953L24.5391 33.6797C24.5391 33.5078 24.4531 33.4219 24.2812 33.4219L24.5391 32.1328C24.5391 31.9453 24.4531 31.6875 24.2812 31.3594C24.4531 31.0312 24.5391 30.7812 24.5391 30.6094H24.2812L24.5391 30.0938L24.2812 29.5781C24.7969 28.125 25.0547 27.1875 25.0547 26.7656C24.8828 26.7656 24.7969 26.6797 24.7969 26.5078H25.0547L24.7969 25.9922C24.9688 23.9453 25.1406 22.8359 25.3125 22.6641L25.0547 22.1484C25.3984 21.2734 25.5703 20.6719 25.5703 20.3438L25.3828 14.7422C25.4297 14.3984 25.6016 14.2266 25.8984 14.2266H28.1953C28.3672 14.2266 28.4531 14.3125 28.4531 14.4844C29.0156 14.1406 29.3828 13.9609 29.5547 13.9453C29.5547 14.1172 29.6406 14.2031 29.8125 14.2031C29.875 13.8594 30.0469 13.6875 30.3281 13.6875ZM27.0938 38.2734V38.5312C27.9375 38.0938 28.3672 37.7578 28.3828 37.5234H28.125C27.4375 37.7734 27.0938 38.0234 27.0938 38.2734ZM25.3125 38.7891V39.3047H26.0859V39.0469C25.8984 39.0469 25.6406 38.9609 25.3125 38.7891ZM27.8672 51.0938H28.125C28.125 51.2812 28.2109 51.5391 28.3828 51.8672H27.8672V51.0938ZM33.0703 14.2266C34.8828 12.4141 35.9766 11.6562 36.3516 11.9531V11.4375H38.4141L38.0156 19.1016C38.0156 18.9297 37.9297 18.8438 37.7578 18.8438C37.7578 19.2969 37.5 19.8984 36.9844 20.6484C37.125 21.3359 37.2969 21.6797 37.5 21.6797L37.2422 22.1953L37.5 22.7109H37.2422L37.5 23.2266V23.4844H36.9844C36.9844 23.6562 37.0703 23.7422 37.2422 23.7422C36.8984 25.0078 36.7266 25.8594 36.7266 26.2969C36.7734 30.9375 36.6016 33.2578 36.2109 33.2578V34.2656L35.9531 35.5547H36.2109L35.6953 37.1016H36.2109C36.0391 37.6172 35.8672 37.875 35.6953 37.875L35.9531 38.3906C35.9531 38.7188 35.7812 39.5781 35.4375 40.9688C35.7812 41.0156 35.9531 41.1797 35.9531 41.4609V41.7188C35.4375 42.5156 35.1797 43.2031 35.1797 43.7812L35.6953 44.0391H36.2109C37.9297 44.0391 38.9375 43.7812 39.2344 43.2656L39.75 43.5234L40.7812 43.2656C41.4531 43.4375 42.0469 43.5234 42.5625 43.5234V43.7812C42.5625 44.1875 42.3047 44.7891 41.7891 45.5859L41.0391 45.0703C40.1172 46.4766 38.9141 47.5078 37.4297 48.1641L36.9141 47.9062C35.8828 48.25 35.3672 48.5078 35.3672 48.6797L34.8516 48.4219C33.9453 48.7656 32.5781 49.1016 30.75 49.4297C30.75 49.2578 30.4062 48.9219 29.7188 48.4219L30.2344 47.1328L29.9766 46.6172C30.1484 46.2891 30.2344 46.0312 30.2344 45.8438C30.2344 45.6719 30.1484 45.5859 29.9766 45.5859L30.2344 44.2969C30.2344 43.9062 30.1484 43.5625 29.9766 43.2656C30.6641 40.7031 31.0078 39.25 31.0078 38.9062L30.4922 37.875C30.8359 36.25 31.1797 35.1328 31.5234 34.5234C31.3516 34.2266 31.2656 33.8906 31.2656 33.5156H31.5234C31.5234 33.3438 31.4375 33.2578 31.2656 33.2578C31.4844 31.1641 31.6562 29.9609 31.7812 29.6484H31.5234L31.7812 29.1328C31.6094 28.8047 31.5234 28.5469 31.5234 28.3594H31.7812L31.5234 27.8438C31.5234 26.6719 31.7812 25.3906 32.2969 24C32.125 23.6562 32.0391 23.3984 32.0391 23.2266L32.2969 22.7109C32.2969 22.5391 32.2109 22.4531 32.0391 22.4531L32.2969 21.1641V20.3906L32.0391 19.875C32.2109 19.875 32.2969 19.7891 32.2969 19.6172C31.9531 19.6172 31.7812 19.4453 31.7812 19.1016C31.7812 18.9297 31.8672 18.8438 32.0391 18.8438L31.5234 17.8359H31.7812C31.5 17.2734 31.2422 16.5 31.0078 15.5156L32.5547 14.4844C32.8984 14.4844 33.0703 14.3984 33.0703 14.2266ZM30.2344 49.1719H30.4922V50.2031H30.2344V49.1719ZM36.1406 49.6875H36.3984C36.3984 49.875 36.4844 50.1328 36.6562 50.4609H36.1406V49.6875ZM45.1875 14.0859C46.6875 14.0859 48.1094 14.3359 49.4531 14.8359L52.6875 14.3438C52.75 14.6719 52.9219 14.8359 53.2031 14.8359L54.9375 14.5781C54.9375 14.7969 55.6094 15.8828 56.9531 17.8359V18.8438C56.9531 19.2188 56.8672 19.5469 56.6953 19.8281C56.8672 20.1562 56.9531 20.4141 56.9531 20.6016C56.7812 20.6016 56.6953 20.6797 56.6953 20.8359H56.9531L56.6953 21.3516C56.6953 21.5078 56.7812 21.5859 56.9531 21.5859L56.6953 22.1016C56.6953 22.2578 56.7812 22.3359 56.9531 22.3359L56.6953 22.8516V24.3516L56.9531 24.8438H56.6953L56.9531 25.3359V25.5938H56.4375L56.9531 27.3516C56.6094 27.9609 56.4375 28.625 56.4375 29.3438C56.4375 30.0938 56.5234 30.5938 56.6953 30.8438C56.5234 32.6875 56.3594 36.0234 56.2031 40.8516C56.0312 40.8516 55.9453 40.9375 55.9453 41.1094C56.2109 41.1094 56.4609 41.2734 56.6953 41.6016C55.8672 44.6016 54.7031 46.1016 53.2031 46.1016L51.4453 48.1172C49.2734 47.9453 48.1875 47.7734 48.1875 47.6016L46.6875 48.1172C46.6875 47.9453 46.6016 47.8594 46.4297 47.8594C46.2734 48.3594 46.1094 48.6094 45.9375 48.6094C45.6094 48.4375 45.3594 48.3516 45.1875 48.3516C44.125 49.5234 43.125 50.1094 42.1875 50.1094C42.1875 49.9375 42.1016 49.6875 41.9297 49.3594H42.1875C41.8594 48.8125 41.6953 48.3125 41.6953 47.8594V47.3672L41.9297 45.8672C41.9297 45.6953 41.8516 45.6094 41.6953 45.6094L41.9297 43.8516V42.0938C41.9297 41.9375 42.0156 41.8594 42.1875 41.8594L41.9297 41.3438C41.9297 41.1875 42.0156 41.1094 42.1875 41.1094L41.9297 40.5938V39.6094L42.1875 39.0938H41.9297L42.1875 38.6016V38.3438L41.9297 37.8516H42.4453L42.1875 37.3594H42.6797C42.6797 37.0156 42.4297 36.8438 41.9297 36.8438V36.6094C41.9297 36.4375 42.2656 36.1875 42.9375 35.8594C42.9375 35.3594 42.6875 35.1094 42.1875 35.1094L42.4453 33.8438H42.1875C42.3594 33.3438 42.5234 33.0938 42.6797 33.0938C42.6797 32.9375 42.6016 32.8594 42.4453 32.8594C42.4453 32.6406 42.6953 31.4688 43.1953 29.3438H42.9375C43.2656 27.0156 43.5156 25.8516 43.6875 25.8516L43.4297 25.3359C43.6016 25.0234 43.6875 24.7734 43.6875 24.5859H43.4297C43.6641 23.6484 43.9141 22.9844 44.1797 22.5938H43.6875V22.3359L43.9453 21.8438H43.6875L43.9453 21.3516C43.9453 21.1797 43.8594 21.0938 43.6875 21.0938L43.9453 20.6016C43.9453 20.4297 43.8594 20.3438 43.6875 20.3438C43.8594 20.0156 43.9453 19.7656 43.9453 19.5938C43.9297 18.75 43.0938 17.3281 41.4375 15.3281V15.0938C41.8594 15.0938 42.7734 14.7578 44.1797 14.0859H45.1875ZM49.4062 19.2656L48.9141 20.0156V21.7734C48.9141 22.1484 48.8281 22.4844 48.6562 22.7812C48.8281 23.0625 48.9141 23.3906 48.9141 23.7656C48.5703 24.3125 48.3984 24.7344 48.3984 25.0312C48.5703 25.0312 48.6562 25.1094 48.6562 25.2656H48.3984C48.3984 25.4375 48.4844 25.5234 48.6562 25.5234C48.5469 26.6953 48.3828 27.2812 48.1641 27.2812L48.3984 27.7734C48.3984 27.9453 48.3203 28.0312 48.1641 28.0312C48.1641 28.3281 48.3281 28.9922 48.6562 30.0234C48.4844 30.5234 48.3203 30.7734 48.1641 30.7734L48.3984 31.2656C48.3984 31.4375 48.3203 31.5234 48.1641 31.5234L48.3984 32.0156V32.2734H47.9062V34.2891H48.3984V35.5312H47.9062V37.2891C47.9062 37.4453 47.9922 37.5234 48.1641 37.5234C47.8203 38.2109 47.6484 38.7109 47.6484 39.0234L47.9062 40.0312L47.1562 43.0312H47.3906C47.6875 42.8594 48.0234 42.7734 48.3984 42.7734L48.6562 43.2891C49.8281 42.8516 50.4141 42.4297 50.4141 42.0234L50.1562 41.5312C50.3281 41.2344 50.4141 40.8984 50.4141 40.5234H50.1562C50.3281 39.6953 50.4922 39.2812 50.6484 39.2812L50.4141 38.7891C50.4141 38.4609 50.5781 37.875 50.9062 37.0312H50.6484C50.8203 36.0312 50.9922 35.5312 51.1641 35.5312C51.1641 35.3594 51.0781 35.2734 50.9062 35.2734L51.1641 33.5391L50.9062 32.2734H51.1641L50.9062 31.7812C50.9062 30.4375 51.1562 28.1875 51.6562 25.0312V24.5156C51.6562 24.3594 51.5703 24.2812 51.3984 24.2812L51.6562 23.7656C51.6562 23.6094 51.5703 23.5312 51.3984 23.5312C51.6797 22.9062 51.9297 21.5703 52.1484 19.5234C51.5703 19.3516 51.2422 19.2656 51.1641 19.2656L49.6641 19.5234C49.6641 19.3516 49.5781 19.2656 49.4062 19.2656ZM125.602 14.2266C127.414 12.4141 128.508 11.6562 128.883 11.9531V11.4375H130.945L130.547 19.1016C130.547 18.9297 130.461 18.8438 130.289 18.8438C130.289 19.2969 130.031 19.8984 129.516 20.6484C129.656 21.3359 129.828 21.6797 130.031 21.6797L129.773 22.1953L130.031 22.7109H129.773L130.031 23.2266V23.4844H129.516C129.516 23.6562 129.602 23.7422 129.773 23.7422C129.43 25.0078 129.258 25.8594 129.258 26.2969C129.305 30.9375 129.133 33.2578 128.742 33.2578V34.2656L128.484 35.5547H128.742L128.227 37.1016H128.742C128.57 37.6172 128.398 37.875 128.227 37.875L128.484 38.3906C128.484 38.7188 128.312 39.5781 127.969 40.9688C128.312 41.0156 128.484 41.1797 128.484 41.4609V41.7188C127.969 42.5156 127.711 43.2031 127.711 43.7812L128.227 44.0391H128.742C130.461 44.0391 131.469 43.7812 131.766 43.2656L132.281 43.5234L133.312 43.2656C133.984 43.4375 134.578 43.5234 135.094 43.5234V43.7812C135.094 44.1875 134.836 44.7891 134.32 45.5859L133.57 45.0703C132.648 46.4766 131.445 47.5078 129.961 48.1641L129.445 47.9062C128.414 48.25 127.898 48.5078 127.898 48.6797L127.383 48.4219C126.477 48.7656 125.109 49.1016 123.281 49.4297C123.281 49.2578 122.938 48.9219 122.25 48.4219L122.766 47.1328L122.508 46.6172C122.68 46.2891 122.766 46.0312 122.766 45.8438C122.766 45.6719 122.68 45.5859 122.508 45.5859L122.766 44.2969C122.766 43.9062 122.68 43.5625 122.508 43.2656C123.195 40.7031 123.539 39.25 123.539 38.9062L123.023 37.875C123.367 36.25 123.711 35.1328 124.055 34.5234C123.883 34.2266 123.797 33.8906 123.797 33.5156H124.055C124.055 33.3438 123.969 33.2578 123.797 33.2578C124.016 31.1641 124.188 29.9609 124.312 29.6484H124.055L124.312 29.1328C124.141 28.8047 124.055 28.5469 124.055 28.3594H124.312L124.055 27.8438C124.055 26.6719 124.312 25.3906 124.828 24C124.656 23.6562 124.57 23.3984 124.57 23.2266L124.828 22.7109C124.828 22.5391 124.742 22.4531 124.57 22.4531L124.828 21.1641V20.3906L124.57 19.875C124.742 19.875 124.828 19.7891 124.828 19.6172C124.484 19.6172 124.312 19.4453 124.312 19.1016C124.312 18.9297 124.398 18.8438 124.57 18.8438L124.055 17.8359H124.312C124.031 17.2734 123.773 16.5 123.539 15.5156L125.086 14.4844C125.43 14.4844 125.602 14.3984 125.602 14.2266ZM122.766 49.1719H123.023V50.2031H122.766V49.1719ZM128.672 49.6875H128.93C128.93 49.875 129.016 50.1328 129.188 50.4609H128.672V49.6875ZM137.086 14.2266C138.586 14.4453 139.523 14.7031 139.898 15V14.4844H141.961C142.352 14.4844 142.695 14.5703 142.992 14.7422C143.289 14.5703 143.633 14.4844 144.023 14.4844C144.586 14.4844 145.016 14.5703 145.312 14.7422L146.836 14.4844H147.352C147.742 14.4844 148 14.9141 148.125 15.7734C147.984 16.4297 147.125 17.5391 145.547 19.1016L144.281 18.8438C144.141 18.8438 143.391 18.9297 142.031 19.1016C142.031 18.9297 141.945 18.8438 141.773 18.8438C141.773 19.2969 141.516 19.8984 141 20.6484C141.141 21.3359 141.312 21.6797 141.516 21.6797L141.258 22.1953L141.516 22.7109H141.258L141.516 23.2266V23.4844H141C141 23.6562 141.086 23.7422 141.258 23.7422C140.914 25.0078 140.742 25.8594 140.742 26.2969L141.258 28.1016C141.773 28.1016 142.695 27.9297 144.023 27.5859L144.539 27.8438L145.055 27.5859C145.383 27.7578 145.633 27.8438 145.805 27.8438V28.3594L145.547 29.6484C145.719 29.6484 145.805 29.7344 145.805 29.9062C145.258 30.9375 144.062 31.7969 142.219 32.4844C142.219 32.3125 141.898 32.2266 141.258 32.2266C140.961 32.9141 140.617 33.2578 140.227 33.2578V34.2656L139.969 35.5547H140.227L139.711 37.1016H140.227C140.055 37.6172 139.883 37.875 139.711 37.875L139.969 38.3906C139.969 38.7188 139.797 39.5781 139.453 40.9688C139.797 41.0156 139.969 41.1797 139.969 41.4609V41.7188C139.453 42.5156 139.195 43.2031 139.195 43.7812L139.711 44.0391H140.227C141.945 44.0391 142.953 43.7812 143.25 43.2656L143.766 43.5234L144.797 43.2656C145.469 43.4375 146.062 43.5234 146.578 43.5234V43.7812C146.578 44.1875 146.32 44.7891 145.805 45.5859L145.055 45.0703C144.133 46.4766 142.93 47.5078 141.445 48.1641L140.93 47.9062C139.898 48.25 139.383 48.5078 139.383 48.6797L138.867 48.4219C137.961 48.7656 136.594 49.1016 134.766 49.4297C134.766 49.2578 134.422 48.9219 133.734 48.4219L134.25 47.1328L133.992 46.6172C134.164 46.2891 134.25 46.0312 134.25 45.8438C134.25 45.6719 134.164 45.5859 133.992 45.5859L134.25 44.2969C134.25 43.9062 134.164 43.5625 133.992 43.2656C134.68 40.7031 135.023 39.25 135.023 38.9062L134.508 37.875C134.852 36.25 135.195 35.1328 135.539 34.5234C135.367 34.2266 135.281 33.8906 135.281 33.5156H135.539C135.539 33.3438 135.453 33.2578 135.281 33.2578C135.5 31.1641 135.672 29.9609 135.797 29.6484H135.539L135.797 29.1328C135.625 28.8047 135.539 28.5469 135.539 28.3594H135.797L135.539 27.8438C135.539 26.6719 135.797 25.3906 136.312 24C136.141 23.6562 136.055 23.3984 136.055 23.2266L136.312 22.7109C136.312 22.5391 136.227 22.4531 136.055 22.4531L136.312 21.1641V20.3906L136.055 19.875C136.227 19.875 136.312 19.7891 136.312 19.6172C135.969 19.6172 135.797 19.4453 135.797 19.1016C135.797 18.9297 135.883 18.8438 136.055 18.8438L135.539 17.8359H135.797C135.516 17.2734 135.258 16.5 135.023 15.5156L136.57 14.4844C136.914 14.4844 137.086 14.3984 137.086 14.2266ZM134.25 49.1719H134.508V50.2031H134.25V49.1719ZM140.156 49.6875H140.414C140.414 49.875 140.5 50.1328 140.672 50.4609H140.156V49.6875ZM157.57 48C156.211 47.9531 154.922 47.7031 153.703 47.25L150.422 47.7422C150.422 47.4141 150.258 47.25 149.93 47.25L148.172 47.5078C148.172 47.2734 147.5 46.1797 146.156 44.2266V43.2188C146.156 42.8438 146.242 42.5078 146.414 42.2109C146.242 41.8984 146.156 41.6484 146.156 41.4609C146.328 41.4609 146.414 41.3828 146.414 41.2266H146.156L146.414 40.7109C146.414 40.5391 146.328 40.4531 146.156 40.4531L146.414 39.9609C146.414 39.7891 146.328 39.7031 146.156 39.7031L146.414 39.2109V37.6875L146.156 37.1953H146.414L146.156 36.7031V36.4453H146.648C146.32 35.3828 146.156 34.7969 146.156 34.6875C146.484 34.0781 146.648 33.4062 146.648 32.6719L146.414 30.4219C146.414 29.9375 146.828 28.5938 147.656 26.3906V26.1328C147.656 24.9609 147.406 24.375 146.906 24.375V21.375L147.164 20.8594C146.883 20.8594 146.633 20.6953 146.414 20.3672C147.242 17.3516 148.414 15.8438 149.93 15.8438L151.688 13.8281C153.859 14 154.945 14.1641 154.945 14.3203C155.789 14.1641 156.211 14 156.211 13.8281C159.477 15.1719 161.234 16.0078 161.484 16.3359L161.227 17.6016L161.484 20.8125C161.062 20.8125 159.523 21.7109 156.867 23.5078L156.023 22.7109C156.148 20.9141 156.211 19.8828 156.211 19.6172H155.953C155.656 19.7734 155.32 19.8516 154.945 19.8516L154.711 19.3594C153.523 19.7969 152.93 20.2109 152.93 20.6016L153.188 21.1172C153.016 21.4141 152.93 21.75 152.93 22.125H153.188C153.016 22.9531 152.852 23.3672 152.695 23.3672L152.93 23.8828C152.633 24.4922 152.383 25.3281 152.18 26.3906C152.352 26.7188 152.438 26.9688 152.438 27.1406H152.18C152.18 27.3125 152.266 27.3984 152.438 27.3984L152.18 29.1562L152.438 30.4219H152.18L152.438 30.9141C152.438 32.2578 152.188 34.5156 151.688 37.6875V38.2031C151.688 38.375 151.773 38.4609 151.945 38.4609L151.688 38.9531C151.688 39.125 151.773 39.2109 151.945 39.2109C151.648 39.8203 151.391 41.1562 151.172 43.2188L152.18 43.4766L153.703 43.2188C153.703 43.3906 153.781 43.4766 153.938 43.4766C154.281 43.0547 154.453 42.8047 154.453 42.7266V40.9688C154.453 40.5938 154.539 40.2578 154.711 39.9609C154.539 39.6641 154.453 39.3281 154.453 38.9531C154.781 38.4062 154.945 37.9844 154.945 37.6875C154.789 37.6875 154.711 37.6094 154.711 37.4531H154.945C154.945 37.2812 154.867 37.1953 154.711 37.1953C154.82 36.0234 154.984 35.4375 155.203 35.4375L154.945 34.9453C154.945 34.7734 155.031 34.6875 155.203 34.6875C155.203 34.375 155.039 33.7031 154.711 32.6719C154.867 32.1719 155.031 31.9219 155.203 31.9219L155.109 31.7578C153.922 30.5703 153.305 29.5625 153.258 28.7344C153.414 28.0312 153.602 27.6797 153.82 27.6797H154.242C154.695 27.6797 155.039 27.7656 155.273 27.9375L156.516 27.6797C156.938 27.6797 157.148 27.7656 157.148 27.9375L158.18 27.6797H159.844L159.867 27.9844C160.148 27.8125 160.438 27.6172 160.734 27.3984H160.992C161.055 27.3672 161.125 27.3359 161.203 27.3047L160.852 28.125C160.883 28.1406 160.93 28.1484 160.992 28.1484C160.836 28.6016 160.68 28.8516 160.523 28.8984L160.477 28.9922C160.508 29.1016 160.594 29.1562 160.734 29.1562C160.734 29.3594 160.484 30.5312 159.984 32.6719H160.219C159.891 35.0156 159.641 36.1875 159.469 36.1875L159.727 36.7031C159.555 37.0156 159.469 37.2656 159.469 37.4531H159.727C159.492 38.3906 159.242 39.0547 158.977 39.4453H159.469V39.7031L159.211 40.2188H159.469L159.211 40.7109C159.211 40.8828 159.297 40.9688 159.469 40.9688L159.211 41.4609C159.211 41.6328 159.297 41.7188 159.469 41.7188C159.297 42.0469 159.211 42.2969 159.211 42.4688C159.211 42.8125 159.359 43.2656 159.656 43.8281L157.57 48ZM167.906 13.6875H168.164C168.164 14.2031 168.422 14.4609 168.938 14.4609C168.656 17.5391 168.43 19.7578 168.258 21.1172C168.258 21.2891 168.344 21.375 168.516 21.375C167.969 25.125 167.633 27.1719 167.508 27.5156C167.664 28.0312 167.828 28.2891 168 28.2891L167.742 28.8047V29.0625L168 29.5781H167.742C167.742 29.75 167.828 29.8359 168 29.8359C167.875 31.5391 167.711 32.3906 167.508 32.3906C167.508 32.5625 167.586 32.6484 167.742 32.6484C167.133 35.9609 166.711 37.6719 166.477 37.7812L166.734 38.2734V38.5312C166.734 38.7031 166.648 38.7891 166.477 38.7891L166.734 39.3047V39.8203C166.734 40.2109 166.648 40.5547 166.477 40.8516L166.734 41.3672C166.562 42.3047 166.477 42.9844 166.477 43.4062H166.734L166.477 43.9219L166.734 44.4375C166.391 44.4844 166.219 44.6562 166.219 44.9531V46.9922L164.93 47.25V47.5078H165.961V48.7969C165.961 49.1406 165.789 49.3125 165.445 49.3125C165.445 49.1406 165.359 49.0547 165.188 49.0547C165.188 49.2266 165.102 49.3125 164.93 49.3125C164.93 48.9219 163.906 47.6406 161.859 45.4688C161.859 45.2969 161.516 44.7812 160.828 43.9219L162.117 34.6875L161.859 34.1953L162.117 33.6797C162.117 33.5078 162.031 33.4219 161.859 33.4219L162.117 32.1328C162.117 31.9453 162.031 31.6875 161.859 31.3594C162.031 31.0312 162.117 30.7812 162.117 30.6094H161.859L162.117 30.0938L161.859 29.5781C162.375 28.125 162.633 27.1875 162.633 26.7656C162.461 26.7656 162.375 26.6797 162.375 26.5078H162.633L162.375 25.9922C162.547 23.9453 162.719 22.8359 162.891 22.6641L162.633 22.1484C162.977 21.2734 163.148 20.6719 163.148 20.3438L162.961 14.7422C163.008 14.3984 163.18 14.2266 163.477 14.2266H165.773C165.945 14.2266 166.031 14.3125 166.031 14.4844C166.594 14.1406 166.961 13.9609 167.133 13.9453C167.133 14.1172 167.219 14.2031 167.391 14.2031C167.453 13.8594 167.625 13.6875 167.906 13.6875ZM164.672 38.2734V38.5312C165.516 38.0938 165.945 37.7578 165.961 37.5234H165.703C165.016 37.7734 164.672 38.0234 164.672 38.2734ZM162.891 38.7891V39.3047H163.664V39.0469C163.477 39.0469 163.219 38.9609 162.891 38.7891ZM165.445 51.0938H165.703C165.703 51.2812 165.789 51.5391 165.961 51.8672H165.445V51.0938ZM173.977 14.0625C176.133 14.2344 177.211 14.3984 177.211 14.5547C178.039 14.3984 178.453 14.2344 178.453 14.0625C179.188 14.2969 179.852 14.6328 180.445 15.0703C180.742 14.8984 181.078 14.8125 181.453 14.8125C181.453 15.2656 182.117 15.7656 183.445 16.3125C183.445 16.4688 183.531 16.5469 183.703 16.5469C183.484 18.4062 183.32 19.5703 183.211 20.0391C183.367 20.3672 183.445 20.6172 183.445 20.7891C183.289 20.7891 183.211 20.875 183.211 21.0469H183.445L183.211 21.5391C183.211 21.7109 183.289 21.7969 183.445 21.7969L183.211 22.2891C183.211 22.4609 183.289 22.5469 183.445 22.5469L183.211 23.0391V24.5391L183.445 25.0312H183.211L183.445 25.5469V25.7812H182.953C183.281 26.8438 183.445 27.4297 183.445 27.5391C183.117 28.1484 182.953 28.8125 182.953 29.5312L183.211 31.7812C183.211 32.25 182.789 33.5781 181.945 35.7656V36.0234C181.945 37.1797 182.195 37.7578 182.695 37.7578V40.7578L182.461 41.25C182.727 41.25 182.977 41.4141 183.211 41.7422C182.445 44.5703 181.445 45.9844 180.211 45.9844C178.727 47.3438 177.977 48.0938 177.961 48.2344C175.805 48.0625 174.727 47.8984 174.727 47.7422C173.883 47.8984 173.461 48.0625 173.461 48.2344C172.742 48 172.078 47.6641 171.469 47.2266C171.188 47.3984 170.859 47.4844 170.484 47.4844C170.484 47.0312 169.82 46.5312 168.492 45.9844C168.492 45.8281 168.406 45.75 168.234 45.75C168.438 43.7188 168.602 42.5547 168.727 42.2578C168.57 41.9297 168.492 41.6797 168.492 41.5078C168.648 41.5078 168.727 41.4219 168.727 41.25H168.492L168.727 40.7578C168.727 40.5859 168.648 40.5 168.492 40.5L168.727 40.0078C168.727 39.8359 168.648 39.75 168.492 39.75L168.727 39.2578V37.7578L168.492 37.2656H168.727L168.492 36.75V36.5156H168.984C168.656 35.4531 168.492 34.8672 168.492 34.7578C168.82 34.1484 168.984 33.4844 168.984 32.7656L168.727 30.5156C168.727 30.0469 169.141 28.7188 169.969 26.5312V26.2734C169.969 25.1172 169.727 24.5391 169.242 24.5391V21.5391L169.477 21.0469C169.211 21.0469 168.961 20.8828 168.727 20.5547C169.492 17.7266 170.492 16.3125 171.727 16.3125C173.227 14.9531 173.977 14.2031 173.977 14.0625ZM175.477 19.0078V19.5703L175.219 21.5156H175.477L174.469 26.2266C174.641 26.5859 174.727 26.8672 174.727 27.0703H174.469C174.469 27.2578 174.555 27.3516 174.727 27.3516L174.469 29.2969L174.727 30.6797H174.469L174.727 31.2422C174.727 32.7266 174.477 35.2266 173.977 38.7422V39.2812C173.977 39.4688 174.055 39.5625 174.211 39.5625L173.977 40.125C173.977 40.3125 174.055 40.4062 174.211 40.4062L173.719 41.7891C173.719 41.9766 173.805 42.0703 173.977 42.0703L173.719 43.4531V44.0156L174.211 43.7344H174.469C174.797 43.7969 174.961 43.9844 174.961 44.2969C175.508 43.9219 176.008 43.7344 176.461 43.7344V43.1719L176.719 41.2266H176.461C176.633 40.0547 176.969 38.5781 177.469 36.7969L177.211 36.2344V35.9531C177.211 35.7656 177.297 35.6719 177.469 35.6719C177.469 35.4844 177.383 35.3906 177.211 35.3906L177.469 33.4453L177.211 32.0625H177.469L177.211 31.5C177.211 30.0156 177.461 27.5156 177.961 24V23.4609C177.961 23.2734 177.875 23.1797 177.703 23.1797L177.961 22.6172C177.961 22.4297 177.875 22.3359 177.703 22.3359L178.219 20.9531C178.219 20.7656 178.133 20.6719 177.961 20.6719L178.219 19.2891V18.7266L177.703 19.0078H177.469C177.125 19.0078 176.953 18.8203 176.953 18.4453C176.422 18.8203 175.93 19.0078 175.477 19.0078ZM197.273 13.0312H199.453L199.992 13.3125V13.0312C201.086 13.0312 201.633 14.125 201.633 16.3125C201.633 18.4844 201.453 20.1172 201.094 21.2109L201.375 21.7734L200.812 23.4141V24.2344C200.453 24.2344 200.273 24.5078 200.273 25.0547L200.555 25.5938C200.367 25.9062 200.273 26.2656 200.273 26.6719L200.812 26.4141C200.812 26.7734 200.906 26.9531 201.094 26.9531C201.094 27.1719 200.82 27.625 200.273 28.3125L200.555 28.875L199.992 29.9531C199.992 30.1406 200.086 30.2344 200.273 30.2344C200.039 32.2969 199.766 33.75 199.453 34.5938C199.641 34.9531 199.734 35.2266 199.734 35.4141L199.195 35.6953L199.453 36.2344V36.7734C199.453 37.1953 199.367 37.5625 199.195 37.875C199.195 38.0625 199.281 38.1562 199.453 38.1562C198.906 41.5156 198.633 43.7891 198.633 44.9766C198.273 44.9766 198.094 45.0625 198.094 45.2344C198.094 45.4219 198.188 45.5156 198.375 45.5156C198.188 47.0781 197.82 48.1719 197.273 48.7969L197.555 50.4375V50.6953H196.992L193.734 47.6953L193.992 47.1562C193.82 46.2031 193.734 45.6562 193.734 45.5156C193.906 45.1719 193.992 44.8984 193.992 44.6953C193.82 44.6953 193.734 44.6094 193.734 44.4375C194.094 44.4375 194.273 44.25 194.273 43.875V43.6172L193.992 43.0547C194.18 43.0547 194.273 42.9688 194.273 42.7969H193.992L194.273 42.2344V41.9766H193.453V41.6953C193.812 41.2422 193.992 40.9688 193.992 40.875C193.383 40.3281 192.93 39.6953 192.633 38.9766H192.352V38.6953L192.633 38.1562C192.367 38.1562 192 37.1562 191.531 35.1562H191.273L191.531 34.5938L189.633 29.6953C189.82 29.6953 189.914 29.6016 189.914 29.4141L189.352 29.1328V32.4141C188.93 34.9922 188.57 36.7188 188.273 37.5938C188.523 37.5938 188.797 37.8672 189.094 38.4141H188.812L189.094 38.9766C189.094 40.4297 188.727 41.1562 187.992 41.1562V41.6953L188.812 41.1562V41.4141L187.711 45.5156C187.898 45.875 187.992 46.1484 187.992 46.3359H187.711C187.898 46.6953 187.992 46.9688 187.992 47.1562L187.711 47.6953L187.992 48.2578C187.508 50.9766 187.055 52.3359 186.633 52.3359C184.992 51.1172 184.172 50.1172 184.172 49.3359C183.625 49.3359 183.352 49.6094 183.352 50.1562H182.812C182.812 49.9688 182.898 49.6953 183.07 49.3359C183.07 49.1016 182.891 48.1016 182.531 46.3359C183.078 44.8672 183.352 42.8672 183.352 40.3359C183.164 39.9766 183.07 39.7031 183.07 39.5156L183.633 39.2344C183.633 39.0625 183.539 38.9766 183.352 38.9766C183.539 37.1484 183.719 36.2344 183.891 36.2344L183.633 35.6953C183.805 35.0547 183.891 34.6875 183.891 34.5938L183.633 34.0547C183.805 33.7422 183.891 33.375 183.891 32.9531H183.633C183.773 32.2344 183.953 31.875 184.172 31.875L183.891 31.3125C183.891 30.7656 184.078 30.0391 184.453 29.1328L184.172 28.5938C184.531 27.6562 184.711 26.9297 184.711 26.4141H184.453C184.625 26.4141 184.805 24.9531 184.992 22.0312C184.805 22.0312 184.711 21.9453 184.711 21.7734C185.07 21.7734 185.25 21.5859 185.25 21.2109L184.992 20.6719C185.164 20.3281 185.25 20.0547 185.25 19.8516C185.078 19.8516 184.992 19.7656 184.992 19.5938H185.25C184.719 18.1875 183.992 17 183.07 16.0312V15.75C183.508 15.75 184.422 15.3906 185.812 14.6719H186.352C189.445 14.6719 190.992 15.3984 190.992 16.8516C191.117 19.5859 191.57 20.9531 192.352 20.9531L192.094 21.4922C193.359 24.1797 193.992 25.7266 193.992 26.1328C193.82 26.4922 193.734 26.7656 193.734 26.9531C194.219 26.9531 194.758 28.1328 195.352 30.4922H195.633V29.6953L195.352 28.3125C195.727 28.3125 195.914 28.1328 195.914 27.7734H195.352V27.4922C195.352 27.3203 195.445 27.2344 195.633 27.2344L195.352 26.6719L195.633 26.1328L195.352 24.7734C195.727 23.4141 195.914 22.5938 195.914 22.3125H195.633C195.82 21.2188 196 20.6719 196.172 20.6719L195.914 20.1328V19.8516C195.914 19.6797 196 19.5938 196.172 19.5938L195.914 19.0312V16.5703C195.914 16.1172 196.273 15.8438 196.992 15.75L197.273 13.0312ZM185.531 40.0547V40.3359C185.797 40.3359 186.07 40.0625 186.352 39.5156H186.07C185.711 39.5781 185.531 39.7578 185.531 40.0547ZM194.555 50.1562C194.914 50.2188 195.094 50.3984 195.094 50.6953V50.9766C194.734 50.9766 194.555 50.7969 194.555 50.4375V50.1562ZM184.453 51.7969C184.703 51.7969 184.969 52.0703 185.25 52.6172H184.992C184.633 52.6172 184.453 52.4375 184.453 52.0781V51.7969Z" fill="#FF3939"/>
<path d="M66.9447 1.8953C67.066 2.40103 67.0458 2.46172 66.8031 2.2392C66.5603 2.05714 66.4794 2.07737 66.3782 2.34034C66.2771 2.62355 66.1962 2.62355 65.913 2.40103C65.6298 2.15828 65.6095 2.17851 65.7309 2.62355L65.8725 3.12927L65.4679 2.66401C64.9824 2.09759 64.7195 2.19874 64.5374 3.0079C64.3756 3.79683 64.8813 4.74759 65.7107 5.1724C66.7221 5.69836 67.066 6.08271 67.592 7.25599C67.8752 7.86286 68.3202 8.67202 68.5832 9.01591C68.8664 9.38004 69.0889 9.80484 69.0889 9.96668C69.0889 10.1285 69.271 10.6545 69.4935 11.14C69.979 12.2121 69.9992 13.1022 69.5947 13.8709C69.4328 14.1945 69.2912 14.3766 69.2912 14.2755C69.2912 14.1743 69.1496 14.2148 68.9878 14.3564C68.745 14.5587 68.6034 14.5587 68.4416 14.3968C68.3 14.2552 68.1179 14.1541 67.9966 14.1541C67.6931 14.1541 68.0168 19.2316 68.4011 20.1216C68.563 20.5262 68.6439 20.9308 68.5832 21.0117C68.3607 21.214 67.4706 20.0407 67.4706 19.535C67.4706 18.9281 66.7424 17.9976 66.2569 17.9976C65.9737 17.9976 65.8118 18.2201 65.65 18.8472C65.3263 19.98 65.5084 20.6678 66.4794 22.2861C67.2683 23.5808 67.3492 24.0663 66.7828 24.0663C66.6412 24.0663 66.2771 23.8842 65.9939 23.6617C65.3668 23.156 65.2252 23.156 65.3668 23.601C65.4275 23.8235 65.2656 23.7022 64.942 23.3583L64.416 22.7514L64.5374 23.5606C64.6183 24.0056 65.0431 25.1789 65.5084 26.1499C66.1962 27.6266 66.2973 27.9907 66.095 28.2739C65.9534 28.456 65.7916 28.7392 65.7309 28.8808C65.5084 29.3258 66.0344 30.7014 66.6615 31.4297C67.0053 31.7938 67.2683 32.1579 67.2683 32.2186C67.2683 32.2793 66.9244 32.3602 66.5198 32.4209L65.7511 32.4816L66.3985 32.6434C66.7626 32.7445 67.1672 32.9468 67.2885 33.0884C67.4706 33.311 67.3897 33.3716 66.8031 33.3716C66.4187 33.3716 66.0344 33.2503 65.9737 33.1087C65.913 32.9873 65.8725 33.048 65.913 33.2705C65.9332 33.4728 66.2771 33.8774 66.6615 34.1201C67.7336 34.8079 68.6844 35.6171 68.6844 35.8193C68.6844 35.9205 68.4618 36.0419 68.1786 36.1228C67.8954 36.2037 67.6931 36.3048 67.7538 36.3655C67.8145 36.4262 67.774 36.5881 67.6527 36.7499C67.4706 36.9522 67.592 37.1949 68.1786 37.8423C68.8057 38.53 68.9069 38.7728 68.8057 39.2785C68.7046 39.764 68.8057 40.027 69.2912 40.6136C69.6351 41.0182 69.8981 41.443 69.8981 41.5644C69.8981 41.6858 70.1206 42.0903 70.3836 42.4545C70.6668 42.8388 70.95 43.385 71.0107 43.6884C71.0714 43.9919 71.4355 44.5381 71.8198 44.9022C72.2042 45.2865 72.5279 45.7316 72.5279 45.9339C72.5279 46.5003 73.2561 47.2487 74.6924 48.0984C76.0477 48.9277 77.3828 50.2831 77.5851 51.0518C77.666 51.3552 77.8885 51.1529 78.5561 49.9999C79.3248 48.7255 79.8103 48.2197 79.8103 48.685C79.8103 48.7861 80.1137 49.1907 80.4981 49.5953L81.1859 50.3438L80.7611 50.9102C80.5183 51.2136 80.2149 51.5575 80.0733 51.6384C79.9317 51.7193 79.8103 51.9014 79.8103 52.0228C79.8103 52.3262 78.6168 53.7827 78.1515 54.0255C77.8683 54.1873 77.666 54.1671 77.4233 53.985C77.2412 53.8232 77.1401 53.8029 77.221 53.8839C77.3019 53.985 77.2817 54.1873 77.1603 54.3491C76.9782 54.5514 76.9985 54.6121 77.1805 54.6121C77.3424 54.6121 77.4031 54.6526 77.3424 54.7132C77.1401 54.9155 76.5737 54.5716 76.5534 54.2277C76.5332 54.0457 76.4725 54.1266 76.3916 54.4098C76.3107 54.693 76.1286 54.8953 76.0073 54.8548C75.8656 54.8346 75.7645 54.9155 75.7645 55.0369C75.7645 55.1583 75.9466 55.1987 76.1691 55.1178C76.4523 55.0369 76.5737 55.0774 76.5737 55.2797C76.5737 55.6033 75.4408 56.109 75.1576 55.927C74.8744 55.7449 74.8137 56.2911 75.0363 56.8777C75.2588 57.4846 75.7038 57.5858 76.3916 57.2419C76.5939 57.1205 77.5851 55.9472 78.5763 54.6323C79.5676 53.3174 80.5385 52.1846 80.7206 52.1037C81.1252 51.9621 81.4489 52.1239 83.4515 53.459C85.8992 55.1178 88.9943 56.635 89.9046 56.635C91.3408 56.635 93.4649 55.4617 96.0947 53.1961C96.9645 52.4678 97.45 52.1846 97.8141 52.2251C98.158 52.2655 98.8863 52.9735 100.302 54.6526C102.871 57.7274 104.085 58.4152 104.085 56.7564C104.085 55.9877 103.741 54.8953 103.559 55.0774C103.498 55.1381 103.559 55.3808 103.681 55.6235C103.903 56.0281 103.883 56.0484 103.438 55.927C102.649 55.6842 102.447 55.3808 102.811 54.9155C103.053 54.5919 103.094 54.5919 103.013 54.8548C102.851 55.2999 103.195 55.5224 103.357 55.0976C103.438 54.8953 103.013 54.0052 102.285 52.7915C100.666 50.1213 100.646 50.0403 101.577 49.656C102.002 49.4942 102.811 48.8873 103.397 48.3411C103.984 47.7747 104.571 47.3297 104.692 47.3297C104.813 47.3297 105.643 46.6216 106.513 45.7316C107.827 44.4369 108.131 44.0323 108.131 43.5266C108.131 43.1625 108.333 42.6568 108.637 42.3129C108.92 41.969 109.142 41.5846 109.142 41.443C109.142 41.2812 109.426 40.9171 109.79 40.6339C110.295 40.209 110.437 39.9461 110.437 39.319C110.457 38.7728 110.639 38.2873 111.044 37.7613C111.489 37.1747 111.57 36.9319 111.388 36.8106C111.206 36.7094 111.185 36.6083 111.347 36.5274C111.469 36.4464 111.57 36.2037 111.57 35.9812C111.57 35.7384 111.873 35.172 112.258 34.7068C113.006 33.8167 113.512 32.7648 113.188 32.7648C113.087 32.7648 112.966 32.8457 112.905 32.9468C112.743 33.1896 111.792 33.3514 111.651 33.1491C111.55 32.9671 111.691 32.8861 112.622 32.6839C113.127 32.5625 113.148 32.5018 112.945 32.1781C112.743 31.8545 112.804 31.6522 113.289 30.9239C113.593 30.4384 113.896 29.69 113.957 29.2247C114.038 28.4762 113.977 28.3751 113.492 28.1526C112.864 27.8693 112.844 27.9098 113.876 25.4823C114.928 22.9739 114.827 22.1445 113.492 22.6503C112.602 22.9942 112.48 22.6705 112.885 21.0522C113.229 19.6564 113.168 17.9976 112.784 17.9976C112.5 17.9976 111.61 19.272 110.963 20.6071C110.437 21.6995 110.235 21.9018 109.405 22.2659C108.313 22.7312 107.848 22.5289 108.313 21.8006C108.455 21.5781 108.697 21.0319 108.859 20.5869C109.001 20.1621 109.608 19.1102 110.194 18.2606C111.287 16.6625 111.428 16.0758 111.084 14.6396C110.983 14.235 110.882 14.1541 110.7 14.3361C110.336 14.7003 110.073 14.5991 109.608 13.8911C108.758 12.6571 108.94 12.0705 110.801 9.92622C111.226 9.44072 111.57 8.89454 111.57 8.69225C111.57 8.51019 111.752 8.18652 111.995 7.964C112.217 7.76171 112.743 6.99301 113.127 6.26477C113.532 5.53653 114.038 4.6869 114.26 4.38347C114.746 3.69569 114.645 2.15828 114.098 1.63232C113.775 1.32889 113.755 1.32889 113.835 1.73347C113.957 2.21897 113.876 2.40103 113.289 2.82584C112.966 3.04836 112.945 3.04836 113.148 2.82584C113.492 2.42126 113.451 2.11782 113.087 2.42126C112.844 2.62355 112.763 2.60332 112.662 2.34034C112.561 2.07737 112.48 2.05714 112.237 2.2392C111.995 2.46172 111.974 2.40103 112.096 1.93576C112.217 1.40981 112.197 1.38958 111.813 1.59187C111.206 1.91553 111.084 2.17851 110.963 3.47317C110.882 4.22164 110.923 4.58576 111.064 4.50484C111.165 4.44416 110.983 4.64645 110.619 4.97011C110.113 5.43538 108.556 7.21553 106.917 9.23843C106.796 9.38004 106.836 9.50141 107.018 9.58232C107.18 9.64301 107.322 9.78461 107.322 9.90599C107.322 10.0274 107.241 10.0678 107.119 10.0071C107.018 9.94645 106.917 10.0274 106.917 10.2094C106.917 10.4117 107.018 10.4724 107.16 10.3915C107.302 10.3106 107.322 10.3308 107.241 10.4926C107.16 10.614 107.018 10.6747 106.917 10.614C106.836 10.5735 106.654 10.8163 106.513 11.1804C106.371 11.5243 106.088 12.1716 105.865 12.5762C105.542 13.2033 105.542 13.3247 105.784 13.2235C106.007 13.1426 106.108 13.2235 106.108 13.4663C106.108 13.79 106.189 13.7495 106.614 13.264C107.221 12.556 107.221 12.5762 106.776 12.0705C106.411 11.6861 106.432 11.6861 106.877 11.9491C107.119 12.111 107.322 12.3537 107.322 12.4953C107.322 12.6369 107.443 12.6976 107.585 12.6369C107.706 12.556 107.463 12.7987 107.039 13.1831C106.594 13.5472 106.189 13.8506 106.128 13.8304C105.987 13.8102 105.521 14.3968 105.501 14.6194C105.501 14.7205 105.602 14.7205 105.744 14.6396C106.007 14.4777 105.987 14.498 104.854 16.2579C104.389 16.9659 104.085 17.6942 104.085 18.0583C104.085 18.4629 103.741 19.1709 103.134 20.0812L102.163 21.4972L101.941 20.3846C101.637 18.8472 101.516 18.5842 101.152 18.7258C100.929 18.827 100.848 18.7056 100.828 18.2808C100.828 17.9571 100.768 17.8155 100.707 17.9369C100.525 18.4022 101.051 20.2835 101.577 21.1129C102.204 22.0839 103.337 22.9335 104.469 23.2774L105.299 23.5201V25.6644C105.299 29.9732 104.732 35.9812 104.045 38.6919C102.386 45.4888 97.5511 51.072 90.5721 54.3087L89.5405 54.7942L88.0637 54.0659C85.4744 52.7915 83.229 51.1732 81.105 49.0693C79.1427 47.1071 77.0389 44.3762 77.2817 44.1335C77.3424 44.0526 77.484 44.1335 77.5851 44.2953C77.7267 44.5178 77.7672 44.4369 77.7469 43.9919C77.7065 43.3041 77.4233 42.8186 77.1603 43.0006C76.9985 43.1018 76.8973 42.8186 76.958 42.4342C76.958 42.3331 76.8973 42.2724 76.776 42.2724C76.5332 42.2724 76.5332 42.3129 76.776 42.9602C76.8771 43.2434 76.9176 43.4861 76.8771 43.4861C76.7153 43.4861 75.7645 41.5037 75.7847 41.2205C75.7847 41.0789 75.8859 41.1598 76.0073 41.4026C76.2702 41.9285 76.8973 42.0499 76.695 41.5442C76.6343 41.3621 76.5737 41.18 76.5737 41.1396C76.5737 41.0789 76.4725 41.0991 76.3309 41.18C76.1691 41.2812 76.1489 41.2205 76.25 40.9575C76.3309 40.7148 76.2298 40.4518 75.9466 40.1888L75.5218 39.7842L75.6634 40.2697C75.8859 41.0182 75.4611 40.472 75.1779 39.6629C74.9149 38.8335 74.8744 38.1861 75.1374 38.5907C75.2588 38.793 75.3397 38.7526 75.4206 38.4087C75.5015 38.1457 75.4408 37.8827 75.3195 37.8018C75.1981 37.7209 75.1576 37.559 75.2385 37.4579C75.3599 37.2758 75.1779 36.7701 74.7935 36.2037C74.7531 36.143 73.9237 36.0823 72.9729 36.0621C70.7073 36.0216 70.1611 35.9407 69.8981 35.6777C69.7565 35.5361 70.1813 35.4755 71.3141 35.4755C72.2042 35.4552 72.9324 35.5361 72.9324 35.6373C72.9324 35.7182 73.1145 35.7991 73.3168 35.7991C74.0855 35.7991 74.3485 35.5766 74.3485 34.8686C74.3485 34.3022 74.2676 34.1808 73.9034 34.1606C73.6405 34.1606 73.2561 34.0594 73.0336 33.9583C72.7302 33.8167 72.8111 33.7964 73.3977 33.8571C74.126 33.9583 74.1462 33.9381 74.1462 33.2907C74.1462 32.9468 74.2473 32.5422 74.3889 32.4006C74.571 32.2186 74.571 32.1579 74.3889 32.1579C74.2473 32.1579 74.1462 32.2388 74.1462 32.3602C74.1462 32.4613 74.045 32.5625 73.9034 32.5625C73.7821 32.5625 73.7416 32.5018 73.8225 32.4209C73.9034 32.34 73.4989 32.0568 72.9122 31.814C72.3256 31.551 71.9008 31.2881 71.9817 31.2274C72.0424 31.1667 72.2851 31.2274 72.5481 31.3487C73.1145 31.6522 74.3485 31.7938 74.3485 31.5308C74.3485 31.4297 74.2676 31.3487 74.1866 31.3487C74.1057 31.3487 74.045 30.7621 74.0653 30.0339C74.0855 28.8201 74.045 28.6785 73.5393 28.2537C73.2359 27.9907 72.9122 27.5861 72.8515 27.3636C72.7706 27.1209 72.5885 26.8781 72.4267 26.8174C72.2649 26.7568 72.1233 26.5747 72.1233 26.3926C72.1233 26.2308 72.0424 26.0892 71.9614 26.0892C71.8603 26.0892 71.4962 25.6846 71.1321 25.1789C70.7679 24.6732 70.5454 24.2686 70.6466 24.2686C70.9298 24.2888 71.5164 24.8148 71.5164 25.0575C71.5164 25.1789 71.6176 25.28 71.7187 25.28C71.8401 25.28 72.0221 25.5228 72.1233 25.806C72.2447 26.0892 72.5076 26.3724 72.7504 26.4331C72.9931 26.514 73.1145 26.6556 73.0538 26.8377C72.892 27.2423 73.2561 27.8289 73.7214 27.9705C74.045 28.0514 74.0855 27.9907 74.0046 27.6266C73.9641 27.4041 73.8832 26.1701 73.8225 24.8957C73.7618 23.0953 73.8023 22.63 73.9844 22.8121C74.3282 23.156 74.5508 23.1155 74.5508 22.711C74.5508 22.4075 74.571 22.4075 74.8137 22.7312C75.0363 23.0346 75.1576 23.0548 75.6229 22.8323C75.9061 22.711 76.1084 22.5087 76.0477 22.4277C75.987 22.3266 76.0679 22.2457 76.2095 22.2457C76.3511 22.2457 76.5939 22.1648 76.7557 22.0636C76.9985 21.9018 76.8569 21.5781 76.0275 20.2835C75.4408 19.3732 74.9553 18.3617 74.8947 17.9167C74.8137 17.4716 74.4496 16.622 74.045 16.0152C73.6405 15.4285 73.3573 14.8823 73.4179 14.8014C73.4786 14.7407 73.4179 14.498 73.2763 14.2755C72.7908 13.5068 72.6897 13.0819 73.0336 13.2235C73.3977 13.3652 73.4179 13.264 73.0538 12.4751C72.9122 12.111 72.6695 11.5243 72.5279 11.1804C72.3863 10.8163 72.2042 10.5533 72.1233 10.614C72.0424 10.6545 72.0221 10.4724 72.0828 10.169C72.1637 9.78461 72.1233 9.68347 71.921 9.80484C71.7389 9.92622 71.6985 9.88576 71.7996 9.72393C71.9008 9.58232 72.0828 9.52164 72.2447 9.58232C72.7706 9.78461 72.5279 9.46095 71.0309 7.90332C70.1408 6.99301 69.4531 6.06248 69.3115 5.63767C69.1698 5.23309 68.8866 4.72736 68.6844 4.5453C68.4416 4.32278 68.2798 3.91821 68.2798 3.55408C68.2798 2.74492 67.9156 2.03691 67.2885 1.63232C66.8031 1.30866 66.8031 1.32889 66.9447 1.8953ZM112.379 3.02813C112.379 3.12927 112.339 3.23042 112.298 3.23042C112.237 3.23042 112.136 3.12927 112.076 3.02813C112.015 2.90675 112.055 2.82584 112.156 2.82584C112.278 2.82584 112.379 2.90675 112.379 3.02813ZM114.2 2.90675C114.2 2.94721 114.038 3.10904 113.856 3.25064C113.532 3.51362 113.512 3.49339 113.775 3.16973C114.038 2.84607 114.2 2.74492 114.2 2.90675ZM65.3466 3.23042C65.4073 3.35179 65.3263 3.37202 65.1645 3.31133C64.8004 3.16973 64.7397 3.02813 65.0229 3.02813C65.1443 3.02813 65.2859 3.10904 65.3466 3.23042ZM113.39 3.71591C113.39 3.75637 113.229 3.91821 113.047 4.05981C112.723 4.32278 112.703 4.30256 112.966 3.97889C113.229 3.65523 113.39 3.55408 113.39 3.71591ZM67.9359 5.27355C68.037 5.35446 67.9359 5.5163 67.7134 5.63767C67.1267 5.9411 66.9649 5.92088 67.2683 5.55676C67.4706 5.31401 67.4706 5.1724 67.3088 5.01057C67.1672 4.86897 67.066 4.62622 67.066 4.46439C67.066 4.2621 67.1874 4.32278 67.4099 4.64645C67.592 4.92965 67.8347 5.21286 67.9359 5.27355ZM111.772 4.94988C111.651 5.11171 111.59 5.33424 111.671 5.45561C111.732 5.55676 111.711 5.6579 111.61 5.6579C111.509 5.6579 111.266 5.88042 111.084 6.16362C110.761 6.64912 110.761 6.70981 111.185 7.29645C111.752 8.10561 111.469 8.34836 110.862 7.57965L110.376 6.99301L110.316 8.48996C110.275 9.54187 110.174 10.0071 109.972 10.0678C109.81 10.1285 109.749 10.0678 109.83 9.92622C110.032 9.60255 110.154 8.06515 110.012 7.51897C109.952 7.23576 109.749 7.07393 109.466 7.07393C109.183 7.0537 109.324 6.93233 109.952 6.62889C110.943 6.16362 111.185 5.9411 111.024 5.5163C110.963 5.37469 111.125 5.0308 111.388 4.74759C111.873 4.2621 112.217 4.42393 111.772 4.94988ZM108.333 10.0071C108.556 10.2701 108.535 10.2903 108.252 10.1892C108.07 10.1285 107.929 9.98691 107.929 9.88576C107.929 9.62278 108.05 9.66324 108.333 10.0071ZM71.7187 11.3827C71.7187 11.5041 71.5569 11.4434 71.3546 11.2613C71.1523 11.059 70.9095 10.9781 70.8286 11.059C70.7477 11.14 70.7477 11.0388 70.8286 10.8568C70.95 10.5129 70.9905 10.5129 71.3344 10.8365C71.5569 11.0186 71.7187 11.2816 71.7187 11.3827ZM108.131 10.6747C108.131 10.7758 107.949 11.0186 107.726 11.2209C107.261 11.6457 107.2 11.5041 107.564 10.9174C107.827 10.5129 108.131 10.3713 108.131 10.6747ZM72.4267 13.3854C72.8111 13.8304 72.8111 13.8304 72.2244 13.3449C71.2534 12.5358 71.1927 12.4751 71.6176 12.6976C71.8401 12.819 72.2042 13.1224 72.4267 13.3854ZM108.798 14.5991C109.223 14.943 109.061 15.1251 108.616 14.8014C108.232 14.5384 107.726 13.6686 107.726 13.2438C107.747 12.9606 107.827 13.0415 108.05 13.5472C108.212 13.9316 108.556 14.4171 108.798 14.5991ZM70.7679 14.3159C70.5454 14.5991 70.242 14.8823 70.0802 14.9228C69.9183 14.9835 70.0397 14.7407 70.3634 14.4171C70.6668 14.0934 70.9095 13.6888 70.9298 13.527C70.9298 13.3045 70.9702 13.3045 71.0511 13.527C71.1118 13.6686 70.9905 14.0327 70.7679 14.3159ZM107.322 15.1858C107.322 15.2464 106.978 15.6106 106.573 15.9949L105.805 16.6827L106.472 15.9545C106.856 15.5499 107.059 15.1655 106.958 15.0846C106.856 15.0239 106.715 14.761 106.654 14.5182C106.533 14.0732 106.533 14.0732 106.917 14.5587C107.14 14.8419 107.322 15.1048 107.322 15.1858ZM72.1233 14.9632C72.0019 15.206 71.8401 15.3678 71.7794 15.3071C71.7389 15.2464 71.7996 15.0239 71.9412 14.7812C72.2851 14.2552 72.4267 14.3968 72.1233 14.9632ZM72.7706 15.0239C72.629 15.1858 72.6088 15.3881 72.6897 15.469C72.7706 15.5701 72.7099 15.5701 72.5683 15.4892C72.3863 15.3881 72.3863 15.2464 72.5481 14.943C72.6695 14.7003 72.8111 14.5789 72.8718 14.6396C72.9324 14.7003 72.892 14.8823 72.7706 15.0239ZM106.472 14.9835C106.674 15.2464 106.634 15.3678 106.27 15.6915C106.007 15.914 105.926 15.9342 106.047 15.7522C106.189 15.5903 106.229 15.2262 106.169 14.943C106.047 14.4373 106.047 14.4373 106.472 14.9835ZM69.5137 16.2781C70.1813 16.7839 70.8286 17.148 70.95 17.0671C71.0714 16.9861 71.1118 17.0064 71.0511 17.1277C70.9702 17.2491 71.1523 17.5526 71.4355 17.8155C71.7187 18.0785 72.2447 18.6651 72.5885 19.1102C73.0336 19.6766 72.8515 19.5552 71.921 18.6449C71.1927 17.9369 70.0397 16.9457 69.3519 16.44C68.6439 15.9342 68.0775 15.4892 68.0775 15.4487C68.0775 15.2464 68.4011 15.4285 69.5137 16.2781ZM110.477 15.8331C108.131 17.593 106.836 18.7258 106.31 19.4541C105.966 19.8991 105.703 20.1621 105.703 20.0003C105.703 19.8384 106.209 19.2113 106.796 18.6247C107.403 18.0178 107.888 17.4312 107.868 17.3098C107.848 17.1884 107.949 17.1075 108.09 17.148C108.434 17.2087 109.567 16.2781 109.385 16.0758C109.304 15.9747 109.345 15.9747 109.466 16.0354C109.608 16.1163 109.931 15.9949 110.174 15.7724C110.437 15.5499 110.761 15.3881 110.862 15.3881C110.983 15.3881 110.801 15.5903 110.477 15.8331ZM107.726 16.885C107.241 17.3907 106.796 17.7953 106.755 17.7953C106.715 17.7953 107.018 17.3907 107.443 16.885C107.848 16.3793 108.273 15.9747 108.394 15.9747C108.515 15.9747 108.212 16.3793 107.726 16.885ZM71.4355 16.8243L72.0221 17.4919L71.3748 16.9052C70.7477 16.3388 70.6061 16.177 70.7679 16.177C70.8084 16.177 71.0916 16.4804 71.4355 16.8243ZM105.319 17.33C105.076 17.7346 105.036 17.6132 105.218 17.0873C105.299 16.9052 105.4 16.8041 105.44 16.8648C105.501 16.9052 105.44 17.1277 105.319 17.33ZM112.723 19.1506C112.662 19.3529 112.622 19.2316 112.622 18.9079C112.622 18.564 112.662 18.4224 112.723 18.5438C112.763 18.6854 112.763 18.9686 112.723 19.1506ZM66.4592 19.1102C66.4592 19.3934 66.4187 19.6159 66.3782 19.6159C66.3378 19.6159 66.2569 19.3934 66.2164 19.1102C66.1557 18.827 66.1962 18.6045 66.2771 18.6045C66.3782 18.6045 66.4592 18.827 66.4592 19.1102ZM104.409 22.9942C104.206 23.1964 104.024 22.893 104.206 22.63C104.328 22.4075 104.368 22.4075 104.449 22.63C104.49 22.7716 104.469 22.9335 104.409 22.9942ZM70.0599 23.156C70.4038 23.9247 70.3431 24.0258 69.8981 23.4594C69.4733 22.9132 69.3924 22.6503 69.6553 22.6503C69.7565 22.6503 69.9385 22.8728 70.0599 23.156ZM105.198 23.0346C105.137 23.156 104.975 23.2571 104.854 23.2571C104.732 23.2571 104.732 23.1358 104.894 22.9537C105.177 22.6098 105.42 22.6907 105.198 23.0346ZM109.102 23.3583C108.879 23.7629 108.637 24.0461 108.596 23.9854C108.455 23.8438 109.122 22.6503 109.345 22.6503C109.446 22.6503 109.345 22.9739 109.102 23.3583ZM113.815 23.5201C113.613 23.7022 113.593 23.6819 113.714 23.3987C113.775 23.1964 113.896 23.0953 113.957 23.156C114.018 23.2167 113.957 23.3785 113.815 23.5201ZM107.807 25.2193C107.119 26.1499 106.513 26.8174 106.513 26.6556C106.513 26.3926 107.18 25.28 107.342 25.28C107.443 25.28 107.524 25.1384 107.524 24.9766C107.524 24.6934 108.151 24.2281 108.313 24.3697C108.353 24.4304 108.131 24.7945 107.807 25.2193ZM67.9763 24.6732C68.037 24.7743 67.9966 24.8755 67.8954 24.8755C67.774 24.8755 67.6729 24.7743 67.6729 24.6732C67.6729 24.5518 67.7134 24.4709 67.7538 24.4709C67.8145 24.4709 67.9156 24.5518 67.9763 24.6732ZM111.266 24.6732C111.327 24.7743 111.287 24.8755 111.185 24.8755C111.064 24.8755 110.963 24.7743 110.963 24.6732C110.963 24.5518 111.003 24.4709 111.044 24.4709C111.105 24.4709 111.206 24.5518 111.266 24.6732ZM73.4989 25.6846C73.6405 25.9071 73.6607 26.0892 73.5393 26.0892C73.4382 26.0892 73.2561 25.9071 73.1347 25.6846C73.0134 25.4621 72.9931 25.28 73.074 25.28C73.1752 25.28 73.3573 25.4621 73.4989 25.6846ZM71.7592 28.1121C71.9008 28.1121 72.1233 28.2739 72.2649 28.4762C72.3863 28.6987 72.8111 29.0224 73.2156 29.2045C73.6202 29.3865 73.9439 29.6293 73.9439 29.7506C73.9439 30.0945 71.1927 28.4155 69.7969 27.2018C69.3317 26.8174 69.4733 26.8579 70.3431 27.4041C70.9702 27.7884 71.6176 28.1121 71.7592 28.1121ZM108.738 27.5255C107.969 28.193 106.856 28.9213 106.573 28.9213C106.31 28.9213 106.998 28.1121 107.281 28.0919C107.463 28.0919 108.03 27.7884 108.535 27.4041C109.769 26.4938 109.85 26.5342 108.738 27.5255ZM68.4214 29.2449L68.9878 29.7506L68.3405 29.4472C67.6729 29.1235 67.2885 28.719 67.6527 28.719C67.7538 28.719 68.1179 28.9415 68.4214 29.2449ZM111.368 28.8808C111.368 28.9819 111.125 29.164 110.821 29.3056C110.255 29.5686 110.255 29.5686 110.639 29.1438C111.044 28.6987 111.368 28.5976 111.368 28.8808ZM70.8489 30.5396C71.1321 30.7621 71.3141 30.9442 71.2534 30.9442C70.9702 30.9442 70.1004 30.4587 70.1004 30.2968C70.1004 30.0339 70.3027 30.0945 70.8489 30.5396ZM108.333 30.6407C107.666 31.0251 107.342 31.0251 107.848 30.6407C108.05 30.4789 108.374 30.3575 108.535 30.3575C108.718 30.3575 108.616 30.4789 108.333 30.6407ZM106.816 31.3487C106.755 31.4499 106.594 31.551 106.492 31.551C106.371 31.551 106.351 31.4499 106.411 31.3487C106.472 31.2274 106.634 31.1464 106.735 31.1464C106.856 31.1464 106.877 31.2274 106.816 31.3487ZM69.9992 32.8052C70.3431 32.9064 70.7882 33.0682 71.0107 33.1693C71.2332 33.2705 71.6985 33.4323 72.0221 33.5335C72.5683 33.7155 72.5885 33.756 72.1435 33.756C71.476 33.7762 68.4821 32.7243 68.6237 32.5018C68.6844 32.4209 68.8664 32.4006 69.0687 32.4613C69.2508 32.5422 69.6756 32.6839 69.9992 32.8052ZM110.113 32.5827C110.032 32.8457 107.403 33.7762 106.816 33.756C106.472 33.7358 106.492 33.7155 106.917 33.5739C107.2 33.4728 108.01 33.1693 108.738 32.8861C109.466 32.6232 110.093 32.4006 110.113 32.3804C110.154 32.3602 110.154 32.4613 110.113 32.5827ZM109.082 35.698C109.021 35.88 108.374 36.0014 106.937 36.0621C106.088 36.1026 105.845 35.6575 106.654 35.5361C107.666 35.3945 109.142 35.4957 109.082 35.698ZM74.9149 37.9232C74.9149 38.1457 74.8744 38.2064 74.8137 38.0648C74.7733 37.9434 74.6114 37.8827 74.4901 37.9636C74.2676 38.1052 72.1637 38.3682 70.7073 38.4491C70.1004 38.4896 69.4531 38.2468 69.5947 38.0243C69.6553 37.9434 70.4038 37.8018 71.2534 37.7411C74.4092 37.4579 74.5508 37.4377 74.571 36.8308C74.5912 36.3048 74.5912 36.3251 74.7531 36.9117C74.834 37.2354 74.9149 37.7006 74.9149 37.9232ZM109.001 37.9434C109.587 38.1255 109.021 38.6514 108.414 38.5098C108.151 38.4491 107.463 38.3277 106.877 38.2468C106.27 38.1861 105.805 38.0041 105.744 37.8423C105.663 37.6197 105.906 37.5793 107.14 37.7006C107.969 37.7816 108.798 37.8827 109.001 37.9434ZM69.6958 39.319C69.6958 39.3797 69.6149 39.4808 69.4935 39.5415C69.3924 39.6022 69.2912 39.5617 69.2912 39.4606C69.2912 39.3392 69.3924 39.2381 69.4935 39.2381C69.6149 39.2381 69.6958 39.2785 69.6958 39.319ZM74.2069 40.3911C74.0653 40.4316 73.7821 40.4316 73.6 40.3911C73.3977 40.3304 73.5191 40.29 73.8427 40.29C74.1866 40.29 74.3282 40.3304 74.2069 40.3911ZM72.5279 40.6541C71.8401 40.8766 71.3141 40.8766 71.8198 40.6541C72.0424 40.5529 72.4065 40.4923 72.629 40.4923C72.9527 40.4923 72.9324 40.5327 72.5279 40.6541ZM107.221 40.6541L107.625 40.8361L107.221 40.8159C106.998 40.8159 106.594 40.735 106.31 40.6541L105.805 40.4923H106.31C106.594 40.4923 106.998 40.5529 107.221 40.6541ZM71.6782 41.5037C71.5771 41.8071 70.3027 41.9892 70.3027 41.6858C70.3027 41.5037 70.7275 41.3621 71.476 41.2812C71.6378 41.2812 71.7187 41.3823 71.6782 41.5037ZM108.252 41.4632C108.414 41.4632 108.535 41.5442 108.535 41.6655C108.535 41.9083 107.382 41.9285 107.241 41.6858C107.079 41.443 107.362 41.2407 107.686 41.3621C107.827 41.4228 108.09 41.4632 108.252 41.4632ZM74.1462 42.6568C74.1462 42.7377 73.7214 42.8793 73.1954 42.94C72.6492 43.0006 72.0626 43.122 71.8805 43.1827C71.6176 43.2839 71.5164 43.2232 71.5164 43.0209C71.5164 42.7579 71.7996 42.677 72.7908 42.6163C73.4786 42.5758 74.0653 42.5354 74.1057 42.5152C74.126 42.4949 74.1462 42.5556 74.1462 42.6568ZM107.322 42.9602C107.322 43.1827 107.119 43.1827 106.27 43.0411C104.692 42.7781 104.652 42.7174 106.068 42.6972C106.998 42.677 107.322 42.7377 107.322 42.9602ZM76.776 44.2953C76.776 44.3964 76.4321 44.4976 76.0275 44.4774C75.4004 44.4774 75.3397 44.4369 75.6634 44.2953C76.2298 44.0526 76.776 44.0526 76.776 44.2953ZM74.3485 45.6709C74.3485 45.7518 74.1664 45.9339 73.9641 46.0552C73.6607 46.2575 73.5191 46.2373 73.337 46.035C73.1752 45.8125 73.1752 45.7316 73.3775 45.6506C73.7821 45.4888 74.3485 45.4888 74.3485 45.6709ZM105.703 45.8327C105.744 45.8934 105.663 46.0148 105.521 46.1159C105.218 46.298 104.49 45.9541 104.49 45.6506C104.49 45.4686 105.501 45.6304 105.703 45.8327ZM77.666 45.8934C77.7267 45.9945 77.5042 46.1766 77.1805 46.298C76.4725 46.5407 76.3511 46.2777 77.0389 45.9541C77.2817 45.8327 77.5042 45.7316 77.5244 45.7316C77.5447 45.7113 77.6053 45.7923 77.666 45.8934ZM78.5561 47.7949C78.2729 47.9365 77.8683 48.1793 77.6458 48.3613C77.4435 48.5434 77.1401 48.7659 76.9782 48.8468C76.7153 49.0087 76.7153 48.9682 76.9378 48.685C77.0996 48.5029 77.1603 48.2602 77.0794 48.1388C77.0187 48.0377 77.1198 47.9365 77.3626 47.9365C77.5851 47.9365 77.8279 47.8354 77.8885 47.7342C77.9492 47.6129 78.2527 47.5319 78.5561 47.5522L79.1023 47.5724L78.5561 47.7949ZM101.637 52.1037C102.244 53.1354 102.608 53.9445 102.548 54.1671C102.447 54.43 102.467 54.4503 102.629 54.2277C102.75 54.0659 102.871 54.0457 102.952 54.1671C103.155 54.511 102.285 54.6728 101.961 54.3491C101.799 54.1873 101.739 54.0052 101.799 53.9243C101.88 53.8636 101.84 53.8029 101.739 53.8029C101.617 53.8029 101.455 53.8839 101.334 54.0052C101.071 54.2682 100.1 53.5602 99.2908 52.4678C98.5221 51.4564 98.4817 51.2945 99.0076 51.4361C99.2908 51.4968 99.3717 51.4564 99.2908 51.2339C99.129 50.809 100.039 49.8987 100.363 50.1617C100.484 50.2831 101.071 51.1529 101.637 52.1037ZM76.3714 56.7159C76.3714 56.7564 76.2298 56.8373 76.0679 56.9182C75.9061 56.9789 75.7645 56.9384 75.7645 56.8373C75.7645 56.7159 75.9061 56.635 76.0679 56.635C76.2298 56.635 76.3714 56.6755 76.3714 56.7159Z" fill="#FF3939"/>
<path d="M75.1576 8.77317C75.1576 9.11706 76.1893 9.90599 76.6546 9.90599C76.8367 9.90599 76.9176 9.78462 76.8569 9.62278C76.7962 9.46095 76.8367 9.27889 76.958 9.19798C77.0996 9.13729 77.1805 9.23843 77.1805 9.48118C77.1805 9.72393 77.2817 9.90599 77.3828 9.90599C77.6863 9.90599 77.6256 8.73271 77.3424 8.65179C77.2008 8.59111 76.8164 8.71248 76.4928 8.91477C75.8454 9.31935 75.5218 9.25866 75.7038 8.7934C75.7645 8.61133 75.6836 8.48996 75.4813 8.48996C75.2992 8.48996 75.1576 8.61133 75.1576 8.77317Z" fill="#FF3939"/>
<path d="M102.345 9.4205C102.406 9.58234 102.345 9.70371 102.224 9.70371C102.103 9.70371 102.042 9.7644 102.103 9.82508C102.184 9.88577 102.426 9.82508 102.669 9.70371C103.134 9.46096 103.074 9.25867 102.548 9.17776C102.345 9.1373 102.264 9.23844 102.345 9.4205Z" fill="#FF3939"/>
<path d="M103.134 9.72393C103.013 9.84531 102.608 10.0071 102.224 10.0881C101.658 10.2094 101.556 10.3106 101.597 10.7758C101.617 11.0793 101.556 11.2816 101.455 11.2209C101.233 11.0793 101.051 11.6861 100.97 12.8392C100.95 13.3449 100.808 13.8709 100.687 13.9923C100.424 14.2552 100.363 14.9632 100.606 14.9632C100.828 14.9632 101.253 14.1945 101.172 13.9113C101.152 13.7697 101.152 13.709 101.192 13.8102C101.253 13.8911 101.374 13.8911 101.496 13.8304C101.597 13.7697 101.536 13.9923 101.354 14.3564C101.172 14.7205 101.111 14.943 101.233 14.8621C101.374 14.8014 101.779 14.0934 102.184 13.3045L102.892 11.8884L103.62 11.9896C104.53 12.1514 104.995 12.5358 104.287 12.5358C103.782 12.556 103.782 12.556 104.186 12.8797C104.591 13.1831 104.591 13.1831 104.105 13.0819C103.539 12.9403 103.175 13.264 102.77 14.235C102.406 15.0846 102.406 15.2262 102.669 15.0644C102.871 14.943 102.952 15.1858 102.892 15.7724C102.851 16.1568 104.004 14.8419 104.328 14.0934C104.611 13.5068 105.016 13.3247 104.813 13.8911C104.732 14.0934 104.712 14.1945 104.773 14.1339C104.995 13.9113 105.946 12.0098 106.31 11.059C106.654 10.1487 106.654 10.0881 106.351 10.2094C105.279 10.6545 104.672 10.7152 104.126 10.4724C103.822 10.3308 103.579 10.1083 103.579 9.96668C103.579 9.60256 103.377 9.48118 103.134 9.72393ZM104.085 11.3018C104.429 11.4232 104.469 11.5041 104.247 11.5041C104.065 11.5243 103.701 11.322 103.438 11.059C103.175 10.8163 103.094 10.7152 103.276 10.8568C103.438 10.9984 103.822 11.1804 104.085 11.3018ZM101.597 12.9808C101.536 13.1426 101.476 13.0819 101.476 12.8594C101.455 12.6369 101.516 12.5155 101.577 12.5965C101.637 12.6571 101.658 12.8392 101.597 12.9808ZM104.085 13.4258C104.085 13.4865 104.004 13.5877 103.883 13.6484C103.782 13.709 103.681 13.6686 103.681 13.5674C103.681 13.4461 103.782 13.3449 103.883 13.3449C104.004 13.3449 104.085 13.3854 104.085 13.4258Z" fill="#FF3939"/>
<path d="M74.3485 10.0476L73.8428 10.3106H74.4294C74.7531 10.3106 74.9756 10.3713 74.8947 10.4319C74.6519 10.6747 73.3168 10.5533 72.8313 10.2297C72.5481 10.0476 72.3256 9.96668 72.3256 10.0274C72.3256 10.3308 73.8225 13.6686 74.0855 13.9518C74.3283 14.2148 74.3485 14.2148 74.2271 13.8506C74.1462 13.6281 74.571 14.1136 75.1374 14.9228C75.7645 15.7926 76.4523 16.5209 76.776 16.6625C77.3626 16.9052 78.3943 18.1999 78.3943 18.6651C78.3741 18.8068 78.1515 19.535 77.8886 20.3239C77.6054 21.1938 77.5244 21.5781 77.7065 21.3354C78.3943 20.4048 78.9 17.5323 78.3538 17.6537C78.2325 17.6739 78.0909 17.5526 78.0504 17.3705C77.9897 17.0873 78.0909 17.0873 79.0012 17.2693C79.7496 17.4109 80.0733 17.4109 80.2554 17.2289C80.4374 17.0468 80.2756 16.9861 79.4867 16.9861C78.5764 16.9861 78.3943 16.9052 77.747 16.2174C76.9176 15.3476 76.1084 13.8709 76.2096 13.3854C76.25 13.1426 76.5332 13.3854 77.1401 14.1945C78.7989 16.44 79.4867 16.2377 78.6168 13.8102C78.2729 12.8999 77.9493 11.7064 77.8683 11.1197C77.747 10.1487 77.7065 10.088 77.2412 10.169C76.958 10.2297 76.3107 10.1487 75.7848 10.0274C75.0363 9.82507 74.7531 9.82507 74.3485 10.0476ZM75.5825 11.1197C75.3195 11.3422 74.8744 11.5041 74.571 11.5041L74.0451 11.4636L74.5912 11.3827C74.8744 11.3422 75.2386 11.1602 75.3599 10.9984C75.5015 10.8365 75.7241 10.7151 75.8454 10.7151C75.9668 10.7354 75.8454 10.9174 75.5825 11.1197ZM77.5244 12.9808C77.4638 13.1426 77.4031 13.0819 77.4031 12.8594C77.3828 12.6369 77.4435 12.5155 77.5042 12.5964C77.5649 12.6571 77.5851 12.8392 77.5244 12.9808Z" fill="#FF3939"/>
<path d="M101.051 17.2896C100.889 17.4716 100.889 17.593 101.01 17.593C101.253 17.593 101.536 17.2087 101.395 17.0671C101.354 17.0266 101.192 17.1075 101.051 17.2896Z" fill="#FF3939"/>
<path d="M82.5412 17.9167C79.8305 18.2606 79.3653 18.4224 79.2843 18.9281C78.9809 20.9713 78.5359 21.922 77.3424 22.9335C76.8771 23.3381 76.0679 23.8033 75.5622 23.9449C74.6721 24.2079 74.6519 24.2281 74.6317 25.098C74.6114 27.1411 75.1576 34.6259 75.4611 36.3049C76.0477 39.5617 76.958 41.9488 78.5561 44.3762C79.6889 46.1159 79.7091 46.1159 79.4057 46.1159C79.3046 46.1159 79.2034 45.9946 79.2034 45.853C79.2034 45.4888 78.4954 44.8617 78.3133 45.0438C78.2324 45.1247 78.2122 45.064 78.2527 44.9022C78.2931 44.7404 78.2931 44.6594 78.2527 44.7606C78.192 44.8415 78.0706 44.8617 77.9695 44.7808C77.6862 44.5988 77.7469 44.7808 78.2931 45.5293C78.637 45.9743 78.9809 46.2171 79.3046 46.2171C79.6282 46.2373 80.1744 46.6419 81.024 47.5927C82.4198 49.1098 82.4401 49.4133 81.0443 48.0984C80.5385 47.6129 80.2553 47.3904 80.3969 47.5724C80.5385 47.7747 80.5992 47.9365 80.5183 47.9365C80.4374 47.9365 80.4778 48.0781 80.6195 48.24C80.7611 48.4018 80.9431 48.503 81.024 48.4423C81.1049 48.4018 81.3275 48.5232 81.5298 48.7457C81.7523 49.0087 81.813 49.1503 81.6511 49.1503C81.5095 49.1503 81.4691 49.2514 81.5298 49.3526C81.6107 49.4739 81.7725 49.5346 81.8939 49.5144C82.0355 49.4942 82.3591 49.5953 82.6424 49.7369L83.1481 49.9797L82.6424 49.5751C82.3591 49.3526 82.2378 49.1503 82.3389 49.1503C82.4603 49.1503 82.9053 49.4942 83.3706 49.919C83.8359 50.3236 84.4427 50.7888 84.7259 50.9507C85.0294 51.1125 85.2114 51.3148 85.1508 51.4159C85.0901 51.4969 85.1912 51.5778 85.353 51.5778C85.5351 51.5778 85.6767 51.6587 85.6767 51.7598C85.6767 51.861 85.8385 51.9823 86.0408 52.0633C86.2229 52.124 87.0725 52.5285 87.9019 52.9736L89.4191 53.7827L90.8351 53.0343C96.5599 50.0808 100.707 45.6102 102.568 40.3911C103.377 38.1457 103.559 37.114 103.964 33.0682C104.409 28.6987 104.449 24.2079 104.085 24.127C103.215 23.8842 102.042 23.1762 101.233 22.3671C100.343 21.4972 100.019 20.8094 99.7359 19.1709C99.574 18.3213 99.7156 18.382 95.8924 17.8965C92.858 17.5121 85.6362 17.5323 82.5412 17.9167ZM95.5485 19.6968C96.6004 19.8587 97.5107 20.0407 97.5714 20.1216C97.6523 20.2026 97.3084 20.2228 96.8027 20.1419C93.1412 19.6362 92.1298 19.5755 88.1042 19.6766C85.3328 19.7575 83.229 19.9194 82.3389 20.1216C80.6397 20.4858 80.7206 20.4858 81.0038 20.1419C81.2263 19.8991 83.5527 19.5552 86.7893 19.3327C88.6504 19.1911 93.6469 19.3934 95.5485 19.6968ZM79.9317 22.7312C79.6282 23.2369 78.9809 23.9854 78.4549 24.4102C77.929 24.835 77.2817 25.4014 77.0187 25.6846C76.5939 26.1297 76.5332 26.1499 76.5939 25.806C76.6343 25.5835 77.1603 25.0373 77.7469 24.5923C78.3336 24.127 79.1427 23.2774 79.5473 22.6907C80.3969 21.3961 80.7004 21.4365 79.9317 22.7312ZM93.3637 21.9625C94.8607 22.1243 96.3172 22.2861 96.6004 22.3064C97.0049 22.3468 97.1668 22.5289 97.4298 23.2976C97.9153 24.6327 98.7042 25.5835 99.8977 26.2713L100.929 26.8579L100.869 28.0514C100.808 30.1148 100.242 35.2327 99.9179 36.8106C99.574 38.4694 98.5424 41.2003 97.713 42.6163C96.9645 43.8503 94.8 46.1159 93.1817 47.3094C91.705 48.4018 89.8237 49.5549 89.5 49.5549C89.2977 49.5549 85.7576 47.2285 85.353 46.8442C85.2317 46.7228 84.7057 46.2575 84.1798 45.8125C82.3389 44.2751 80.316 41.0384 79.4462 38.2266C78.9809 36.6892 78.2931 31.0049 78.4752 30.0743C78.7179 28.7392 78.7179 26.9388 78.4549 27.04C77.929 27.2423 78.2122 26.8984 78.8595 26.5747C80.3565 25.7858 81.3072 24.8755 81.7725 23.7426C82.0153 23.1358 82.2175 22.5694 82.2175 22.4884C82.2175 22.3064 82.3389 22.2861 84.9889 21.9625C88.0435 21.5984 90.1675 21.5984 93.3637 21.9625ZM102.184 25.6239C102.042 25.7655 101.658 25.4823 101.658 25.2396C101.658 25.1182 101.779 25.1182 101.961 25.28C102.143 25.4216 102.224 25.5835 102.184 25.6239ZM78.3336 28.9617C78.2931 29.3258 78.2527 29.0831 78.2527 28.4155C78.2527 27.748 78.2931 27.4445 78.3336 27.748C78.374 28.0514 78.374 28.5976 78.3336 28.9617ZM102.406 30.58C102.366 30.843 102.325 30.6407 102.325 30.135C102.325 29.6293 102.366 29.427 102.406 29.6697C102.447 29.9327 102.447 30.3373 102.406 30.58ZM102.002 34.727C101.941 34.9293 101.9 34.7675 101.9 34.3831C101.9 33.9988 101.941 33.8369 102.002 34.019C102.042 34.2213 102.042 34.5449 102.002 34.727ZM101.354 38.1659C100.687 40.6946 99.5538 43.0209 98.0366 45.064C96.7217 46.7835 95.6294 47.7949 93.1412 49.5953C91.1385 51.0316 89.8641 51.4766 88.7313 51.1732C88.2862 51.0518 87.8614 50.8495 87.7805 50.7281C87.6794 50.5663 87.7603 50.5461 88.0233 50.6472C88.9943 51.0518 90.0462 51.0114 90.9565 50.5663C93.5862 49.2312 96.8633 46.3991 98.421 44.1133C99.9988 41.7869 101.577 37.7613 101.678 35.7587C101.718 35.2934 101.718 35.2934 101.799 35.7384C101.84 35.9812 101.658 37.0736 101.354 38.1659ZM78.8191 45.6507C79.082 45.9743 79.0618 45.9946 78.7584 45.7316C78.5561 45.59 78.3943 45.4281 78.3943 45.3877C78.3943 45.2259 78.5561 45.327 78.8191 45.6507Z" fill="#FF3939"/>
<path d="M92.5546 23.8842C92.5546 23.9854 92.6153 24.0663 92.7164 24.0663C92.9592 24.0663 94.1527 25.9476 94.4763 26.8984C94.6584 27.4041 94.8809 28.456 94.9618 29.2652C95.0832 30.5396 95.063 30.6812 94.7798 30.5396C94.1324 30.1755 93.1615 28.9819 92.676 27.9098L92.1702 26.7972V27.6468C92.15 28.1121 92.2511 28.7392 92.3523 29.0426C92.5748 29.609 93.9908 31.106 94.6584 31.4499C95.5889 31.9354 95.8924 32.7041 95.8924 34.5449C95.8924 36.2442 95.8519 36.3655 94.9416 38.2064C94.0111 40.027 93.9908 40.0674 94.537 39.7438C95.4473 39.1571 96.8431 37.5995 97.2275 36.7094C97.4298 36.2644 97.6523 35.4755 97.713 34.99C97.9153 33.4728 98.0164 33.1491 98.2187 33.2705C98.3401 33.3312 98.421 33.6346 98.421 33.9381C98.4412 34.464 98.4412 34.464 98.7244 34.0999C99.392 33.2098 98.7851 31.7129 97.3893 30.843C96.9443 30.5396 96.6408 30.1957 96.6408 29.9934C96.6611 29.7911 96.6004 29.3663 96.5195 29.0426C96.3779 28.4965 96.3981 28.4762 96.742 28.719C96.9443 28.8808 97.3084 29.1842 97.5714 29.4068L98.0366 29.8113L97.713 28.9415C97.5511 28.456 97.2073 27.7277 96.9443 27.3232C96.7015 26.9186 96.3576 26.3522 96.1958 26.0487C95.8115 25.361 94.4359 24.2686 93.9504 24.2686C93.7481 24.2686 93.5458 24.1877 93.4851 24.0865C93.3233 23.8438 92.5546 23.6617 92.5546 23.8842ZM95.7508 26.7972C95.6901 26.8579 95.5687 26.7568 95.508 26.5545C95.3866 26.2713 95.4069 26.251 95.6092 26.4331C95.7508 26.5747 95.8115 26.7365 95.7508 26.7972ZM96.216 27.6266C96.3172 27.93 96.3779 28.2132 96.3172 28.2537C96.2767 28.2942 96.1553 28.0514 96.034 27.7277C95.771 26.959 95.9328 26.8984 96.216 27.6266ZM95.7912 31.2678C95.7912 31.4297 95.6901 31.5106 95.5889 31.4499C95.4676 31.369 95.4271 31.2274 95.4878 31.1262C95.6699 30.843 95.7912 30.9037 95.7912 31.2678ZM97.3084 31.1465C97.3691 31.2476 97.3286 31.3487 97.2275 31.3487C97.1061 31.3487 97.005 31.2476 97.005 31.1465C97.005 31.0251 97.0454 30.9442 97.0859 30.9442C97.1466 30.9442 97.2477 31.0251 97.3084 31.1465ZM97.3084 32.1174C97.187 32.259 96.3981 31.7331 96.3981 31.5308C96.3981 31.4297 96.6206 31.4903 96.8836 31.6926C97.1466 31.8949 97.3489 32.077 97.3084 32.1174ZM96.4183 36.7499C95.8924 37.7411 95.2046 38.611 95.1844 38.2671C95.1844 38.1457 95.3664 37.8423 95.6092 37.5995C96.034 37.1747 96.5802 35.8598 96.6408 35.1113C96.6408 34.8888 96.7015 34.9697 96.742 35.3339C96.8027 35.7182 96.6611 36.2644 96.4183 36.7499Z" fill="#FF3939"/>
<path d="M85.9599 24.1674C85.7172 24.3293 85.4744 24.4102 85.4137 24.3495C85.0901 24.0056 83.0874 25.6644 83.3504 26.069C83.4111 26.1903 83.229 26.6354 82.9053 27.0602C82.1569 28.0716 81.6309 29.0224 81.6309 29.4068C81.6309 29.8518 81.8939 29.8113 82.3389 29.3258C82.9256 28.6583 83.2492 28.7999 83.1076 29.6697C82.9862 30.5193 82.7233 30.9442 82.3389 30.9442C82.1973 30.9442 81.8332 31.2274 81.55 31.5713C80.9633 32.259 80.842 33.5537 81.2668 34.4842C81.5702 35.172 81.8939 35.1316 81.732 34.4033C81.6714 34.0796 81.6916 33.756 81.7927 33.6953C81.9141 33.6346 82.0557 34.019 82.1164 34.5449C82.3187 35.9205 83.2694 37.7411 84.5439 39.1369C85.1507 39.8045 85.6565 40.2495 85.6767 40.1281C85.6767 40.027 85.5756 39.8247 85.434 39.6831C85.2923 39.5415 85.2519 39.4403 85.3328 39.4403C85.4137 39.4403 85.2923 39.0762 85.0698 38.6109C83.9775 36.5071 83.8561 32.9468 84.8069 32.0972C86.587 30.4991 87.0927 29.7506 87.0927 28.6785C87.0927 27.5052 86.7893 27.0197 86.587 27.8896C86.5061 28.2335 86.1622 28.9213 85.7981 29.3865C84.8878 30.58 84.7057 30.9239 85.2519 30.4587C85.5553 30.1755 85.6565 30.1552 85.5756 30.3575C85.5149 30.5193 85.2721 30.7621 85.0496 30.9037C84.7462 31.106 84.6652 31.106 84.7664 30.9239C84.8675 30.7823 84.8271 30.7216 84.645 30.7823C84.4832 30.843 84.382 30.9644 84.4023 31.0655C84.4225 31.1667 84.2202 31.3487 83.937 31.4903C83.3099 31.7735 83.3099 31.551 83.9168 31.0858C84.2809 30.8228 84.4023 30.5193 84.4225 29.8922C84.4832 28.4762 85.3935 25.8464 86.1824 24.8148C86.9107 23.864 86.7893 23.5606 85.9599 24.1674ZM84.8675 25.6239C84.5439 26.1701 84.1595 27.04 84.0179 27.6064C83.6943 28.9819 83.4717 29.1842 83.674 27.9503C83.8359 26.9388 84.4832 25.4216 84.8675 25.1789C84.9889 25.098 85.0294 24.9564 84.9687 24.8552C84.8878 24.7541 84.9889 24.6732 85.1507 24.6732C85.3935 24.6732 85.3126 24.8957 84.8675 25.6239ZM82.1973 31.4903C82.0355 31.6926 81.7927 32.0365 81.6714 32.259C81.55 32.4816 81.4286 32.5625 81.4286 32.4411C81.4286 32.1984 82.1973 31.1464 82.3794 31.1464C82.4401 31.1464 82.3591 31.3083 82.1973 31.4903ZM83.5527 32.5422C83.492 32.6636 83.3301 32.7648 83.2088 32.7648C83.0874 32.7648 83.0874 32.6434 83.2492 32.4613C83.5324 32.1174 83.7752 32.1984 83.5527 32.5422Z" fill="#FF3939"/>
<path d="M79.2034 26.6961C79.0214 26.8174 79.0011 26.8984 79.1427 26.8984C79.2641 26.8984 79.4462 26.7972 79.5069 26.6961C79.6687 26.4533 79.5878 26.4533 79.2034 26.6961Z" fill="#FF3939"/>
<path d="M87.6187 29.5686C87.1737 30.1957 87.2141 30.8633 87.7199 31.369C88.1042 31.7533 88.1244 31.814 87.821 32.4613C87.4771 33.1896 86.7084 33.7762 86.1015 33.7762C85.8183 33.7762 85.6363 33.9987 85.4542 34.5247C85.2115 35.2732 85.1912 35.2732 85.0699 34.7877C84.908 34.2617 84.8069 34.3831 84.6046 35.3541C84.5034 35.7384 84.9889 37.0331 85.3935 37.5995C85.434 37.64 85.697 37.3972 85.9802 37.0938C86.4252 36.6083 86.4859 36.5678 86.4252 36.9117C86.3847 37.1342 86.2431 37.2961 86.1218 37.2758C85.8386 37.2152 85.8183 37.5995 86.0813 38.0243C86.2431 38.2671 86.4252 38.1659 87.0928 37.4579C87.7805 36.6892 87.8615 36.5274 87.6794 36.1632C87.4771 35.7789 87.4367 35.7587 87.2546 36.0621C87.1534 36.2644 86.9714 36.406 86.85 36.406C86.7286 36.406 86.7691 36.2442 86.9512 36.0419C87.1534 35.8396 87.295 35.3945 87.295 35.0709L87.2748 34.4842L86.9107 34.9293C86.6882 35.1923 86.4252 35.3945 86.2836 35.3945C86.1622 35.3945 86.3443 35.0911 86.668 34.727C87.0118 34.3831 87.295 33.9381 87.3153 33.7762C87.3153 33.5133 87.3355 33.5133 87.4367 33.7762C87.4973 33.9381 87.7401 34.3022 87.9828 34.5854L88.4076 35.0911L87.9626 34.727C87.5378 34.3629 87.5378 34.3629 87.6996 35.0304C87.7805 35.3945 87.9019 35.8396 87.9626 36.0014C88.2863 36.8915 88.3065 37.4174 88.0233 37.4174C87.8817 37.4174 87.6389 37.5591 87.4973 37.7209C87.3557 37.8827 87.1737 37.9839 87.0928 37.9232C86.7489 37.7209 86.6477 38.2671 86.9512 38.5705C87.2141 38.8537 87.3153 38.8537 87.5783 38.611C88.4886 37.7816 88.4481 37.7613 89.1359 39.0965C89.7023 40.209 90.8554 41.8071 91.4622 42.3736C91.887 42.7579 92.5546 43.8503 92.5546 44.1739C92.5546 44.7201 91.8668 44.9224 90.7138 44.6999C89.6618 44.4976 89.0954 44.1537 88.529 43.4052C88.3065 43.1018 88.2256 43.0816 88.0638 43.3041C87.9221 43.5064 87.9019 43.4659 88.0233 43.1827C88.2256 42.6568 88.2256 41.6655 88.0233 41.2205C87.9019 40.9575 88.0233 40.6945 88.5088 40.2495C88.9336 39.8449 89.055 39.6426 88.8527 39.6426C88.6706 39.6426 88.2054 40.027 87.8008 40.5125C87.1534 41.261 87.0725 41.4632 87.1534 42.151C87.295 43.1423 88.2458 44.6797 89.0145 45.1247C89.3584 45.327 90.1473 45.5697 90.7744 45.6709C92.3321 45.9136 93.0805 45.6102 93.2828 44.619C93.4649 43.5873 93.2626 42.9804 92.2714 41.6858C91.7859 41.0587 91.2397 40.2495 91.0576 39.8652C90.7138 39.2178 90.7138 39.1571 91.0576 38.53C91.3611 37.9434 91.4622 37.8827 91.8263 38.085C92.0691 38.2266 92.3118 38.4087 92.3725 38.5098C92.5748 38.7728 92.9592 38.4491 92.9592 38.0041C92.9592 37.7816 92.8783 37.6602 92.7569 37.7209C92.6557 37.7816 92.3523 37.7007 92.0893 37.5186C91.8263 37.3568 91.5431 37.2758 91.4825 37.3568C91.2397 37.5995 91.3409 37.114 91.6241 36.7499C91.8668 36.4262 91.9477 36.4667 92.7164 37.1949C93.5863 38.0445 93.7683 38.0445 93.7683 37.2556C93.7683 36.8308 93.7279 36.8106 93.4649 37.0129C93.2221 37.2152 93.1615 37.2152 93.1615 36.9522C93.1615 36.7701 92.9794 36.5071 92.7569 36.3453C92.2714 36.0216 91.887 35.0507 92.15 34.8888C92.2714 34.8079 92.3523 34.9293 92.3523 35.1316C92.3725 35.5564 93.0199 36.406 93.3233 36.406C93.4447 36.406 93.7076 36.6285 93.9302 36.8915L94.3145 37.3972L94.6382 36.6285C95.0225 35.7789 95.063 35.0304 94.7798 34.5854C94.6584 34.3831 94.5775 34.3629 94.5775 34.5247C94.5775 34.9697 94.2134 34.8079 93.9302 34.2213C93.7683 33.9178 93.4649 33.6549 93.2019 33.6144C92.9389 33.5739 92.676 33.4121 92.6153 33.2503C92.5546 33.0884 92.413 32.9671 92.3118 32.9671C92.1905 32.9671 92.1702 33.1087 92.2309 33.2907C92.2916 33.4526 92.2714 33.5335 92.15 33.4728C92.0286 33.4121 91.9477 33.1896 91.9477 32.9671C91.9477 32.7648 91.8061 32.5423 91.6241 32.4816C91.4622 32.4209 91.3611 32.2793 91.442 32.1579C91.5836 31.9152 91.2195 31.2476 90.471 30.4384L89.9248 29.8316L90.2283 30.7419C90.4103 31.2274 90.6935 31.814 90.8958 32.0163C91.1588 32.34 91.179 32.4007 90.9363 32.3197C90.7744 32.2793 90.5115 31.9556 90.3496 31.632C90.1878 31.3083 89.9855 31.0049 89.8844 30.9846C89.8034 30.9442 89.763 30.8228 89.8439 30.7216C89.9046 30.6205 89.8641 30.5396 89.7428 30.5396C89.6214 30.5396 89.5809 30.398 89.6416 30.2362C89.8237 29.7709 89.5607 29.872 88.9943 30.4789C88.529 30.9846 88.4683 31.0049 88.1447 30.6812C87.8615 30.398 87.8615 30.2362 88.0435 29.7304C88.3065 29.0224 88.0638 28.9213 87.6187 29.5686ZM89.5607 31.8342C89.3584 32.2995 88.2256 33.0278 88.0233 32.8255C87.8008 32.6029 88.1447 32.2186 88.4886 32.2995C89.0145 32.4411 89.5607 31.814 89.3989 31.2678C89.2977 30.9239 89.318 30.8835 89.5405 31.0858C89.7225 31.2881 89.7428 31.4499 89.5607 31.8342ZM91.4218 33.1491C91.1386 33.4121 90.0664 33.6346 90.2283 33.3716C90.2889 33.2705 90.5317 33.1694 90.734 33.1694C90.9363 33.1694 91.179 33.0682 91.2397 32.9468C91.3206 32.8255 91.442 32.785 91.5027 32.8659C91.5634 32.9266 91.5229 33.048 91.4218 33.1491ZM87.9019 33.4728C87.9019 33.6346 87.8615 33.7762 87.821 33.7762C87.7805 33.7762 87.6996 33.6346 87.6187 33.4728C87.558 33.311 87.5985 33.1694 87.6996 33.1694C87.821 33.1694 87.9019 33.311 87.9019 33.4728ZM89.8641 34.019C89.8034 34.1808 89.7428 34.1201 89.7428 33.8976C89.7225 33.6751 89.7832 33.5537 89.8439 33.6346C89.9046 33.6953 89.9248 33.8774 89.8641 34.019ZM91.6241 33.8571C91.5634 34.019 91.3611 34.1808 91.179 34.2415C90.997 34.3022 90.6733 34.4033 90.4912 34.4842C90.2889 34.5652 90.1271 34.5449 90.1271 34.4236C90.1271 34.3224 90.471 34.0999 90.8958 33.9178C91.3004 33.756 91.6645 33.6144 91.6847 33.5942C91.705 33.5739 91.6847 33.6953 91.6241 33.8571ZM94.1122 35.3743C94.3954 35.5159 94.5168 35.7182 94.4561 35.9003C94.2741 36.3453 94.0718 36.2644 93.8088 35.698C93.6874 35.4148 93.4447 35.1923 93.2828 35.1923C92.9592 35.1923 92.15 34.2617 92.15 33.9178C92.15 33.7965 92.4939 34.019 92.9187 34.4236C93.3233 34.8281 93.8695 35.2529 94.1122 35.3743ZM89.8844 34.7068C89.9248 34.727 89.8844 34.7877 89.7832 34.8484C89.7023 34.9091 89.4393 34.7068 89.237 34.4033L88.8325 33.8774L89.3382 34.282C89.6012 34.5045 89.8439 34.7068 89.8844 34.7068ZM91.1588 35.1923C90.6531 35.6373 90.2283 35.698 90.026 35.3945C89.9451 35.2732 90.1473 35.1923 90.5115 35.1923C90.8351 35.1923 91.179 35.0911 91.2397 34.99C91.3004 34.8686 91.4218 34.7877 91.5027 34.7877C91.5836 34.8079 91.4218 34.99 91.1588 35.1923ZM85.6363 36.1026C85.434 36.5678 85.3733 36.5881 85.2115 36.2846C85.0901 36.0621 85.1103 35.9003 85.2924 35.7789C85.7779 35.4755 85.879 35.5766 85.6363 36.1026ZM91.0374 36.1026C90.6126 36.3655 90.208 36.5476 90.1473 36.5071C90.1069 36.4465 90.1069 36.3858 90.1473 36.3453C90.7744 35.9812 91.4825 35.6373 91.6443 35.6171C91.7657 35.6171 91.4825 35.8396 91.0374 36.1026ZM89.6618 36.6487C89.6012 36.8106 89.5405 36.7499 89.5405 36.5274C89.5202 36.3049 89.5809 36.1835 89.6416 36.2644C89.7023 36.3251 89.7225 36.5071 89.6618 36.6487ZM89.1157 37.0129C89.3584 37.1545 89.318 37.1949 88.9538 37.1545C88.7111 37.1545 88.5088 37.0533 88.5088 36.9724C88.5088 36.7499 88.7515 36.7701 89.1157 37.0129ZM89.6618 37.6602C89.6012 37.822 89.5405 37.7613 89.5405 37.5388C89.5202 37.3163 89.5809 37.1949 89.6416 37.2758C89.7023 37.3365 89.7225 37.5186 89.6618 37.6602ZM90.471 38.1659C90.2687 38.611 90.208 38.6514 90.1676 38.348C90.1271 38.1457 90.208 37.9029 90.3699 37.8018C90.7542 37.5591 90.7542 37.5591 90.471 38.1659ZM89.763 38.6716C89.6214 38.8132 89.5202 38.8335 89.5202 38.7121C89.5202 38.4289 89.763 38.1862 89.9046 38.3278C89.9451 38.3884 89.8844 38.5503 89.763 38.6716ZM89.8641 39.4808C89.8034 39.6426 89.7428 39.582 89.7428 39.3594C89.7225 39.1369 89.7832 39.0155 89.8439 39.0965C89.9046 39.1571 89.9248 39.3392 89.8641 39.4808Z" fill="#FF3939"/>
<path d="M91.7859 29.6697C91.9882 30.2361 91.9679 30.3777 91.6645 30.7216C91.3408 31.0655 91.3206 31.1869 91.5431 31.4499C91.7859 31.7331 91.8466 31.7331 92.1095 31.4701C92.5343 31.0453 92.4534 29.9529 91.9679 29.4472L91.5431 29.0426L91.7859 29.6697Z" fill="#FF3939"/>
<path d="M78.637 30.5396C78.637 30.8228 78.6775 30.9239 78.7382 30.7823C78.7786 30.661 78.7786 30.4182 78.7382 30.2766C78.6775 30.1552 78.637 30.2564 78.637 30.5396Z" fill="#FF3939"/>
<path d="M78.7381 32.2186C78.8595 33.7358 78.9607 33.8571 78.9809 32.522C79.0011 31.8949 78.9202 31.3285 78.8393 31.2678C78.7381 31.2071 78.6977 31.6319 78.7381 32.2186Z" fill="#FF3939"/>
<path d="M79.4057 31.9354C79.4057 32.0365 79.5271 32.1781 79.6687 32.2388C79.871 32.34 79.871 32.3804 79.6687 32.4816C79.5069 32.5422 79.4057 33.0682 79.3855 33.8369C79.3652 34.9495 79.345 35.0102 79.1832 34.3831C79.0618 33.8774 79.0416 34.019 79.1225 34.9495C79.2641 36.8106 79.9317 39.1167 80.8622 41.0182C81.7118 42.7579 83.2897 44.9022 83.7145 44.9022C83.8763 44.9022 83.8561 44.8415 83.674 44.7201C83.5324 44.619 83.4515 44.4369 83.5324 44.3155C83.6336 44.1739 83.5527 44.1335 83.3706 44.2144C83.1481 44.2953 83.0469 44.2144 83.0469 44.0121C83.0469 43.4659 82.0962 42.0094 81.8332 42.1713C81.7725 42.2117 81.6916 41.9285 81.6714 41.5442C81.5702 40.1281 81.5298 39.8449 81.3882 39.8449C81.287 39.8449 81.2263 39.6831 81.2263 39.4808C81.2263 39.0762 80.5385 38.1659 80.3767 38.3277C80.316 38.3884 80.2756 38.1457 80.2553 37.8018C80.2553 37.4377 80.134 37.0938 80.0126 37.0129C79.8912 36.9319 79.7901 36.6083 79.7901 36.2846C79.7698 34.0594 79.871 32.6636 80.0328 32.6029C80.316 32.4816 80.2553 32.2793 79.8103 31.9961C79.5878 31.8545 79.4057 31.8342 79.4057 31.9354ZM79.5473 35.8396C79.4866 36.0014 79.4259 35.9407 79.4259 35.7182C79.4057 35.4957 79.4664 35.3743 79.5271 35.4552C79.5878 35.5159 79.608 35.698 79.5473 35.8396Z" fill="#FF3939"/>
<path d="M80.3363 35.1518C80.2553 35.4148 80.2351 35.6778 80.2958 35.7384C80.4981 35.961 80.6599 35.6575 80.579 35.1518L80.4981 34.6865L80.3363 35.1518Z" fill="#FF3939"/>
<path d="M80.4172 37.5995C80.4172 37.7006 80.5183 37.8625 80.6195 37.9232C80.7409 37.9838 80.8218 37.9636 80.8218 37.8422C80.8218 37.7411 80.7409 37.5793 80.6195 37.5186C80.5183 37.4579 80.4172 37.4781 80.4172 37.5995Z" fill="#FF3939"/>
<path d="M81.4286 39.4403C81.4286 39.5415 81.5298 39.6426 81.6512 39.6426C81.7523 39.6426 81.7928 39.5415 81.7321 39.4403C81.6714 39.319 81.5702 39.238 81.5096 39.238C81.4691 39.238 81.4286 39.319 81.4286 39.4403Z" fill="#FF3939"/>
<path d="M74.571 34.5045C74.571 34.727 74.6317 34.7877 74.6924 34.6258C74.7531 34.4842 74.7328 34.3022 74.6722 34.2415C74.6115 34.1606 74.5508 34.2819 74.571 34.5045Z" fill="#FF3939"/>
<path d="M75.3599 39.3392C75.3599 39.501 75.4004 39.6426 75.4409 39.6426C75.4813 39.6426 75.5622 39.501 75.6431 39.3392C75.7038 39.1774 75.6634 39.0358 75.5622 39.0358C75.4409 39.0358 75.3599 39.1774 75.3599 39.3392Z" fill="#FF3939"/>
<path d="M79.5069 46.7228C79.426 46.8644 79.5271 47.1071 79.7092 47.2892C79.9115 47.4915 80.0126 47.532 79.9317 47.3903C79.871 47.269 79.9115 47.1274 80.0328 47.0869C80.1744 47.0465 80.1542 46.9251 79.9519 46.7632C79.7294 46.561 79.608 46.561 79.5069 46.7228Z" fill="#FF3939"/>
</svg>
